<?xml version="1.0" encoding="utf-8"?>
<!-- Generator: Adobe Illustrator 22.0.1, SVG Export Plug-In . SVG Version: 6.00 Build 0)  -->
<svg version="1.1" id="图层_1" xmlns="http://www.w3.org/2000/svg" xmlns:xlink="http://www.w3.org/1999/xlink" x="0px" y="0px"
	 viewBox="0 0 800 600" style="enable-background:new 0 0 800 600;" xml:space="preserve">
<style type="text/css">
	.st0{fill:#4D4D4D;}
</style>
<path class="st0" d="M74.6,468.4h52.4c6.8-51.3,50.1-88.6,102.4-88.6c52.4,0,97.9,37.3,102.4,88.6h38.7c22.8,0,38.7-18.6,38.7-37.3
	V81.5c0-21-15.9-37.3-38.7-37.3H72.3c-20.5-2.3-36.4,16.3-36.4,35v349.6C35.9,449.8,51.8,468.4,74.6,468.4 M477.5,468.4h27.3
	c6.8-51.3,50.1-88.6,102.4-88.6c52.4,0,97.9,37.3,102.4,88.6H737c13.7,0,27.3-11.7,27.3-25.6V300.6c0-51.3-88.8-181.8-132-181.8
	H477.5c-13.7,0-27.3,11.7-27.3,25.6v296C450.2,456.8,463.8,468.4,477.5,468.4 M532.1,184.1c0,0,41-2.3,88.8,0
	c22.8,0,77.4,76.9,77.4,116.5v11.7H527.6V181.8h4.6V184.1 M609.5,430c-36.4,0-66,28-66,62.9c0,35,29.6,62.9,66,62.9
	c36.4,0,66-28,66-62.9C675.6,458,646,430,609.5,430 M227.1,417.2c-38.7,0-68.3,30.3-68.3,69.9c0,37.3,31.9,69.9,68.3,69.9
	c38.7,0,68.3-30.3,68.3-69.9S265.8,417.2,227.1,417.2 M525.5,184.6l12.2-0.9l-0.4-6.3l-12.2,0.9L525.5,184.6z"/>
</svg>
