<?xml version="1.0" standalone="no"?>
<!DOCTYPE svg PUBLIC "-//W3C//DTD SVG 1.1//EN" "http://www.w3.org/Graphics/SVG/1.1/DTD/svg11.dtd" >
<!--
2013-9-30: Created.
-->
<svg>
<metadata>
Created by iconfont
</metadata>
<defs>

<font id="OAIndexIcon" horiz-adv-x="1024" >
  <font-face
    font-family="OAIndexIcon"
    font-weight="500"
    font-stretch="normal"
    units-per-em="1024"
    ascent="896"
    descent="-128"
  />
    <missing-glyph />
    
    <glyph glyph-name="x" unicode="x" horiz-adv-x="1001"
d="M281 543q-27 -1 -53 -1h-83q-18 0 -36.5 -6t-32.5 -18.5t-23 -32t-9 -45.5v-76h912v41q0 16 -0.5 30t-0.5 18q0 13 -5 29t-17 29.5t-31.5 22.5t-49.5 9h-133v-97h-438v97zM955 310v-52q0 -23 0.5 -52t0.5 -58t-10.5 -47.5t-26 -30t-33 -16t-31.5 -4.5q-14 -1 -29.5 -0.5
t-29.5 0.5h-32l-45 128h-439l-44 -128h-29h-34q-20 0 -45 1q-25 0 -41 9.5t-25.5 23t-13.5 29.5t-4 30v167h911zM163 247q-12 0 -21 -8.5t-9 -21.5t9 -21.5t21 -8.5q13 0 22 8.5t9 21.5t-9 21.5t-22 8.5zM316 123q-8 -26 -14 -48q-5 -19 -10.5 -37t-7.5 -25t-3 -15t1 -14.5
t9.5 -10.5t21.5 -4h37h67h81h80h64h36q23 0 34 12t2 38q-5 13 -9.5 30.5t-9.5 34.5q-5 19 -11 39h-368zM336 498v228q0 11 2.5 23t10 21.5t20.5 15.5t34 6h188q31 0 51.5 -14.5t20.5 -52.5v-227h-327z" />
    

    
    <glyph glyph-name="bianjimoban" unicode="&#58924;" d="M127.110228 110.351539q0-26.438928 18.812314-45.251241t46.268123-18.812314l253.203575 0 0-128.12711-318.284012 0q-26.438928 0-49.82721 9.660377t-40.675273 26.947368-26.947368 40.675273-9.660377 50.844091l0 637.584906q0 26.438928 9.660377 49.82721t26.947368 40.675273 40.675273 27.455809 49.82721 10.168818l766.728898 0q26.438928 0 49.82721-10.168818t40.675273-27.455809 27.455809-40.675273 10.168818-49.82721l0-187.106256-128.12711-1.016882q-2.033764 25.422046-19.829196 43.217478t-44.234359 17.795432l-637.584906 0q-27.455809 0-46.268123-18.812314t-18.812314-45.251241l0-382.347567zM1016.881827 310.677259q6.101291-9.151936 7.626614-23.388282t-10.677259-28.472691q-11.1857-14.236346-18.303873-21.354518l-8.135055-8.135055-105.75571 95.586892q5.084409 6.101291 14.236346 14.744786t14.236346 13.727905q14.236346 14.236346 30.506455 12.711023t27.455809-6.609732q12.202582-5.084409 26.438928-18.812314t22.3714-29.998014zM613.179742 22.899702q3.050645 3.050645 14.236346 16.270109t27.96425 32.540218 37.116187 42.200596 40.675273 46.268123q48.810328 54.911619 108.806356 122.025819l107.789474-95.586892q-59.996028-68.131082-108.806356-123.042701-20.337637-23.388282-40.675273-46.268123t-37.116187-41.183714-27.455809-29.998014-12.711023-13.727905q-9.151936-12.202582-25.422046-20.337637-7.118173-5.084409-21.354518-11.1857t-29.998014-12.202582-29.489573-10.677259-20.846077-5.59285q-26.438928-5.084409-23.388282 22.3714 1.016882 7.118173 4.067527 21.862959t6.609732 30.506455 7.118173 28.981132 5.59285 18.303873q5.084409 13.219464 17.286991 28.472691z"  horiz-adv-x="1025" />

    
    <glyph glyph-name="sousuo" unicode="&#58925;" d="M952.2284-57.5426 672.0915 199.9958c43.7901 55.7742 69.8786 125.8347 69.8786 201.9331 0 181.9366-149.0502 329.4296-332.9123 329.4296-183.8641 0-332.9143-147.493-332.9143-329.4296 0-181.9406 149.0502-329.4336 332.9143-329.4336 81.756 0 156.6144 29.1802 214.5605 77.5674l276.0484-250.9499L952.2284-57.5426zM105.2541 402.8413c0 165.3069 137.3456 299.3151 306.7699 299.3151S718.7928 568.1492 718.7928 402.8413c0-165.3119-137.3436-299.3191-306.7689-299.3191S105.2541 237.5294 105.2541 402.8413z"  horiz-adv-x="1000" />

    
    <glyph glyph-name="shezhi1" unicode="&#58999;" d="M896.6978 400.0122l-70.2323 15.5984c-5.4715 17.4791-12.606 34.2338-20.8587 50.3509l38.0018 63.2591c14.192 22.6936 21.3274 56.033 0 77.4045l-38.7263 38.6848c-10.4294 10.4749-24.4494 14.8739-38.6004 14.8739-14.6587 0-29.4942-4.7878-40.5622-12.4805l-61.5978-39.2384c-15.9868 8.2924-32.6572 15.3876-50.0111 21.0297l-15.77 71.0378c-4.701 26.0733-27.4875 54.2832-57.7042 54.2832h-54.71314772489924c-30.2227 0-48.729-28.6376-54.7131-54.7109l-17.5708-70.1834c-18.5052-5.898-36.3329-13.4609-53.2591-22.3978L297.2497 647.7033c-11.1139 7.6938-25.9035 12.4805-40.6071 12.4805-14.106 0-28.1261-4.399-38.6004-14.8739l-38.6814-38.6848c-21.3724-21.3715-14.191-54.7109 0-77.4045l39.9635-66.5929c-7.4772-15.1317-14.146-30.6892-19.2747-47.0171l-70.1863-15.5984c-26.0734-4.7078-54.2854-27.4864-54.2854-57.7089v-54.71090600572811c0-30.2165 28.6388-48.727 54.7131-54.7109l71.0807-17.735c4.9189-15.0918 11.028-29.5779 17.9985-43.5974l-40.0085-66.6798c-14.191-22.6526-21.3324-55.992 0-77.3635l38.7263-38.6848c10.4304-10.4699 24.4494-14.9159 38.5954-14.9159 14.6637 0 29.4942 4.7878 40.5672 12.4815l63.2617 40.3496c17.0521-9.0159 34.9647-16.6707 53.6009-22.5687l17.5258-70.0135c5.9842-26.0723 24.4894-54.7109 54.7131-54.7109h54.71314772489924c30.2168 0 53.0032 28.2109 57.7042 54.2832l15.77 71.2497c17.1831 5.5612 33.6825 12.5725 49.4575 20.7329l61.7237-39.3233c11.0679-7.6938 25.9035-12.4815 40.5622-12.4815 14.151 0 28.1711 4.446 38.6004 14.9159l38.7263 38.6848c21.3274 21.3715 14.192 54.7109 0 77.3635l-38.0418 63.3461c7.6481 15.0448 14.2769 30.6882 19.6175 46.9312l71.0867 17.735c26.0744 5.9839 54.7131 24.4944 54.7131 54.7109v54.71090600572811C950.9832 372.5258 922.7722 395.3044 896.6978 400.0122zM907.2131 287.5934c0-2.1775-8.0759-9.1018-21.5433-12.2637l-71.0867-17.736-23.4641-5.858-7.5222-22.9954c-4.4452-13.5068-10.1735-27.1846-17.0122-40.6524l-11.028-21.5814 12.481-20.7729 38.4705-64.0686c6.9246-11.0735 7.6931-21.6733 6.1951-23.2123l-38.8123-38.7257c-1.8808-1.8797-6.281-2.0516-7.6082-2.0516-5.3866 0-11.5416 1.8807-15.645 4.7018l-0.6836 0.4727-0.7245 0.4687-61.6837 39.3233-21.2864 13.5928-22.3977-11.6271c-14.06-7.311-28.4679-13.335-42.7847-17.9508l-23.8518-7.7348-5.3856-24.4484-15.8159-71.2547-0.3418-1.7098c-1.624-9.0619-9.8767-18.2946-14.6187-18.2946h-54.71314772489924c-2.1826 0-9.1472 8.0755-12.2702 21.5824l-17.4799 70.0175-5.9442 23.7199-23.3391 7.397c-15.5591 4.9127-31.1582 11.4942-46.3745 19.5298l-22.4837 11.838-21.4573-13.6787-63.2617-40.3027-0.7295-0.4687-0.6846-0.4727c-4.1034-2.8211-10.2585-4.7018-15.644-4.7018-1.3222 0-5.7274 0.1719-7.6481 2.1376l-38.6864 38.6398c-1.539 1.538-0.8095 12.1378 6.5428 23.9348l40.0085 66.6798 12.3501 20.5161-10.6862 21.4575c-6.4519 12.9482-11.5406 25.3028-15.5591 37.6585l-7.5232 23.0364-23.509 5.858-71.8962 17.9528c-12.6919 2.945-20.7278 9.8703-20.7278 12.0478v54.71090600572811c0 4.7468 9.1871 12.9932 18.2494 14.6631l0.9004 0.1309 0.8545 0.2109 70.1863 15.5585 24.7063 5.4713 7.5632 24.1067c4.0634 12.8633 9.5349 26.1583 16.7164 40.6914l10.6862 21.4565-12.3561 20.5621-40.3913 67.3164c-6.9246 11.0275-7.6941 21.6683-6.1551 23.2063l38.6814 38.6848c1.8808 1.8807 5.9842 2.0516 7.6541 2.0516 5.4255 0 11.5406-1.7948 15.645-4.6159l0.6836-0.5127 0.7695-0.4677 63.1308-40.2237 21.4184-13.6318 22.4837 11.837c14.9605 7.8647 30.4746 14.4472 46.2036 19.4048l23.2132 7.437 5.9382 23.6789 17.7417 70.9979c2.9071 12.6924 9.9167 20.7279 12.0543 20.7279h54.71314772489924c4.742 0 12.9947-9.1928 14.6187-18.2546l0.1709-0.8944 0.1709-0.8544 15.77-71.0388 5.4315-24.4484 23.8518-7.6938c14.5327-4.7018 29.1055-10.8566 43.3424-18.2087l22.3977-11.6261 21.2874 13.5468 61.5518 39.2434 0.7245 0.4677 0.6836 0.5127c4.1034 2.8211 10.2595 4.6159 15.645 4.6159 1.3272 0 5.7274-0.1249 7.6931-2.0516l38.6414-38.6398c1.584-1.539 0.8145-12.2247-6.5368-23.9358l-38.0028-63.2591-12.481-20.8589 11.028-21.6283c7.7391-15.1307 13.6383-29.4071 18.0845-43.5125l7.5622-24.1916 24.7063-5.4713 70.2323-15.5585 0.8545-0.2568 0.8545-0.0849c9.0612-1.6699 18.2943-9.9163 18.2943-14.6631V287.5934116668899zM513.6218 492.5075c-96.7334 0-175.5082-78.6067-175.5082-175.2452 0-96.6435 78.7748-175.2052 175.5082-175.2052 96.8133 0 175.5492 78.5607 175.5492 175.2052C689.171 413.9008 610.4352 492.5075 513.6218 492.5075zM514.0486 184.8001c-72.9675 0-132.3817 59.2418-132.3817 131.9895 0 72.7477 59.4152 131.9495 132.3817 131.9495 72.9625 0 132.3377-59.2019 132.3377-131.9495C646.3863 244.0419 587.0111 184.8001 514.0486 184.8001z"  horiz-adv-x="1000" />

    
    <glyph glyph-name="zhuanfa" unicode="&#58926;" d="M849.8656-15.8329c0 0 0-51.5301-51.5322-51.5301h-618.3760944278495c0 0-51.5292 0-51.5292 51.5301v412.2305077157687c0 51.5311 51.5292 51.5311 51.5292 51.5311h154.59452328866513l51.5332 51.5271H128.4281912421787c-29.2384 0-51.5332-22.9444-51.5332-51.5271l-0.1499-515.1897c0-28.5836 23.6989-51.8309 52.9373-51.8309l720.1822 0.1969c29.1834 0 51.5292 22.9484 51.5292 51.5311V293.3405151307414l-51.5292-51.5281V-15.832865317314827zM946.9888 449.7904l-260.0244 200.9817c-4.778 3.6735-11.1189 4.2771-16.5015 1.7088-5.3346-2.6122-8.7604-7.9986-8.7604-13.9366v-120.36739090896371c-98.6861-2.971-177.6898-40.5615-234.9593-99.5375-102.103-104.9199-92.0883-258.4508-91.8395-264.8904 0.2518-8.2544 6.9446-14.793 15.2503-14.9978h0.34777846511772c8.1518 0 14.9475 6.2418 15.6021 14.3433 0.6036 8.4043 13.2855 202.7965 295.5997 209.6898v-126.25839680696487c0-5.888 3.4258-11.3243 8.7604-13.9366 5.3826-2.6192 11.7745-1.9647 16.5015 1.7088l260.0244 200.9817c3.7716 2.92 6.0362 7.4499 6.0362 12.2787C953.0249 442.2945 950.7614 446.8195 946.9888 449.7904zM692.9546 268.2815V378.53175546979145c0 8.5542-6.9925 15.5535-15.649 15.5535-166.373 0-247.6942-61.1425-293.1852-121.5276 12.6819 41.312 28.3819 86.8061 65.1185 124.5426 54.1495 55.7052 130.9436 90.2778 228.0667 90.2778 8.6565 0 15.649 6.9443 15.649 15.4985V606.7430282268622l218.9555-169.1843L692.9546 268.2815z"  horiz-adv-x="1000" />

    
    <glyph glyph-name="shezhi2" unicode="&#59031;" d="M884.0768 414.3515l-58.7806 6.1878c-6.4999 21.5414-15.1553 42.4033-25.8435 62.2968l37.2123 45.9738c15.0574 18.6074 12.3731 47.6647-6.1141 66.1521l-57.8911 57.8878c-10.1086 10.1071-23.8508 15.9052-37.703 15.9052-10.7042 0-20.5419-3.3837-28.4549-9.7864l-45.9727-37.2118c-19.8933 10.6888-40.755 19.3429-62.2963 25.8425l-6.1911 58.7791c-2.5074 23.8049-24.9581 42.4522-51.1104 42.4522h-81.85885590878611c-26.1503 0-48.601-18.6474-51.1114-42.4532l-6.1881-58.7771c-21.5363-6.4976-42.395-15.1507-62.2923-25.8415l-45.9827 37.2148c-7.909 6.4007-17.7477 9.7844-28.4529 9.7844-13.8542 0-27.5964-5.7971-37.705-15.9062l-57.8841-57.8808c-18.4892-18.4905-21.1805-47.5508-6.1211-66.1601l37.2203-45.9708c-10.6902-19.8935-19.3437-40.7524-25.8435-62.2918l-58.7915-6.1908c-23.8038-2.5093-42.452-24.9581-42.452-51.1063v-81.85550196966457c0-26.1523 18.6471-48.604 42.453-51.1113l58.7856-6.1848c6.4999-21.5384 15.1553-42.4003 25.8425-62.2908l-37.2173-45.9808c-15.0574-18.6074-12.3711-47.6667 6.1161-66.1551l57.8861-57.8818c10.1106-10.1121 23.8548-15.9102 37.708-15.9102 10.7022 0 20.5409 3.3837 28.4549 9.7854l45.9757 37.2198c19.8943-10.6888 40.758-19.3419 62.2923-25.8425l6.1941-58.7801c2.5044-23.8089 24.9511-42.4572 51.1014-42.4572h81.86385272581366c26.1503 0 48.601 18.6444 51.1134 42.4502l6.1861 58.7811c21.5463 6.5006 42.406 15.1537 62.2963 25.8425l45.9717-37.2048c7.913-6.4087 17.7577-9.7964 28.4679-9.7964 13.8522 0 27.5924 5.7981 37.695 15.9012l57.8891 57.8888c18.4892 18.4885 21.1785 47.5458 6.1211 66.1521l-37.2173 45.9748c10.6912 19.8935 19.3477 40.7544 25.8485 62.2918l58.7726 6.1938c23.8118 2.5043 42.463 24.9521 42.463 51.1034v81.86049858196142C926.5308 389.3934 907.8837 411.8412 884.0768 414.3515zM886.1845 281.3846c0-5.9809-3.7836-10.7117-6.341-10.9786L793.4945 261.3032l-3.4808-13.5808c-6.9796-27.2175-17.8246-53.3538-32.2325-77.6803l-7.1464-12.0698 54.6692-67.5322c1.612-1.9946 0.9444-8.0136-3.2869-12.2467l-57.8911-57.8888c-2.5194-2.5183-6.0312-4.0802-9.1662-4.0802-1.3242 0-2.4454 0.2908-3.08 0.8035l-67.539 54.6609-12.0653-7.1452c-24.3205-14.4012-50.4579-25.2429-77.6895-32.2222l-13.5843-3.4826-9.0872-86.3545c-0.2698-2.5503-5.0028-6.3347-10.99-6.3347h-81.86385272581366c-5.9812 0-10.7092 3.7844-10.978 6.3387l-9.0982 86.3545-13.5823 3.4826c-27.2167 6.9773-53.354 17.8209-77.6875 32.2262l-12.0683 7.1442-67.532-54.6699c-0.6296-0.5087-1.7489-0.8015-3.071-0.8015-3.137 0-6.6548 1.5689-9.1792 4.0932l-57.8851 57.8808c-4.2293 4.2301-4.8969 10.253-3.2829 12.2487l54.6642 67.5382-7.1434 12.0668c-14.4018 24.3255-25.2439 50.4608-32.2245 77.6833l-3.4828 13.5838-86.362 9.0888c-2.5494 0.2678-6.332 5.0016-6.332 10.9885v81.85550196966457c0 5.9849 3.7856 10.7147 6.335 10.9836l86.362 9.0948 3.4818 13.5828c6.9806 27.2215 17.8236 53.3598 32.2275 77.6853l7.1464 12.0688-54.6712 67.5272c-1.614 1.9946-0.9424 8.0166 3.2899 12.2507l57.8841 57.8798c2.5224 2.5223 6.0382 4.0892 9.1762 4.0892 1.3232 0 2.4434-0.2918 3.071-0.8005l67.54-54.6639 12.0683 7.1442c24.3345 14.4062 50.4718 25.2479 77.6845 32.2232l13.5853 3.4816 9.0912 86.3515c0.2698 2.5513 5.0008 6.3377 10.988 6.3377h81.85885590878611c5.9842 0 10.7172-3.7844 10.986-6.3347l9.0962-86.3525 13.5823-3.4826c27.2247-6.9803 53.363-17.8219 77.6905-32.2252l12.0673-7.1462 67.531 54.6629c0.6286 0.5087 1.7479 0.8005 3.071 0.8005 3.137 0 6.6528-1.5659 9.1772-4.0892l57.8871-57.8858c4.2303-4.2301 4.8959-10.251 3.2819-12.2447l-54.6602-67.5292 7.1434-12.0678c14.4028-24.3255 25.2469-50.4648 32.2295-77.6903l3.4808-13.5818 86.354-9.0918c2.5494-0.2698 6.333-4.9996 6.333-10.9836V281.38462122680824zM499.9995 456.1871c-73.819 0-133.8747-60.0533-133.8747-133.8682 0-73.816 60.0557-133.8692 133.8747-133.8692 73.817 0 133.8747 60.0543 133.8747 133.8692C633.8742 396.1338 573.8165 456.1871 499.9995 456.1871zM499.9995 228.7943c-51.5721 0-93.5284 41.9526-93.5284 93.5236 0 51.57 41.9563 93.5246 93.5284 93.5246 51.5721 0 93.5284-41.9546 93.5284-93.5246C593.5279 270.7468 551.5716 228.7943 499.9995 228.7943z"  horiz-adv-x="1000" />

    
    <glyph glyph-name="guanbi" unicode="&#58927;" d="M467.75 765c-241.5625 0-437.5-195.9375-437.5-437.5 0-241.625 195.875-437.5 437.5-437.5 241.625 0 437.5 195.875 437.5 437.5C905.25 569.0625 709.375 765 467.75 765zM620.4375 231.1875c6.1875-6.3125 6.1875-16.4375 0-22.625l-34.0625-34.125c-6.4375-6.375-16.5-6.375-22.8125 0L467 270.9375l-96.5625-96.5c-6.25-6.375-16.4375-6.375-22.75 0L313.625 208.5625c-6.25 6.25-6.25 16.375 0 22.625l96.5625 96.5L313.625 424.4375c-6.25 6.25-6.25 16.4375 0 22.625l34.0625 34.0625c6.3125 6.3125 16.5 6.3125 22.75 0l96.5625-96.5625 96.5625 96.5625c6.375 6.3125 16.4375 6.3125 22.8125 0l34.0625-34.0625c6.1875-6.25 6.1875-16.4375 0-22.625L523.875 327.75 620.4375 231.1875z"  horiz-adv-x="1000" />

    
    <glyph glyph-name="fanhui" unicode="&#58928;" d="M362.4585 313.0182 748.0193-73.143 701.0671-120.0932 315.3035 265.6533 315.3035 265.6533 270.0073 310.9476 713.77 754.6917 759.0662 709.3974Z"  horiz-adv-x="1000" />

    
    <glyph glyph-name="fanhui1" unicode="&#58929;" d="M624.788992 607.952026 585.205965 647.535974 219.560038 281.814989 585.205965-83.864013 624.788992-44.280986 298.663014 281.83895Z"  horiz-adv-x="1024" />

    
    <glyph glyph-name="zanting" unicode="&#58930;" d="M524.272128 811.981978C241.513165 811.981978 12.288102 582.754048 12.288102 299.994982c0-112.734003 36.43904-216.957952 98.17897-301.537997l38.667981 40.258048C97.458176 112.769997 67.143168 202.841037 67.143168 299.994982 67.143168 552.459008 271.807078 757.127014 524.272128 757.127014c252.45696 0 457.120973-204.668006 457.120973-457.132032 0-252.460954-204.664013-457.118003-457.120973-457.118003-96.240026 0-185.530982 29.744026-259.189043 80.53504l-34.539008-42.797978c83.150029-58.344038 184.437965-92.596019 293.728973-92.596019 282.758963 0 511.984026 229.220966 511.984026 511.976038C1036.256154 582.754048 807.031091 811.981978 524.272128 811.981978zM615.693107 555.988019l0-511.987 54.855 0L670.548107 555.988 615.693128 555.988zM377.996083 555.988019l0-511.987 54.855 0L432.851083 555.988 377.996128 555.988z"  horiz-adv-x="1048" />

    
    <glyph glyph-name="dayin" unicode="&#59069;" d="M844.7488 634.1243l-55.614464 0L789.134336 828.771328 233.001984 828.771328l0-194.646016-55.61344 0c-61.3427 0-111.2269-49.8831-111.2269-111.2259l0-361.48736 166.839296 0 0-222.452736 556.133376 0L789.134316 161.412096l166.84032 0L955.974636 522.898432C955.9747 584.2422 906.0905 634.1243 844.7488 634.1243zM288.6154 773.1579l444.906496 0 0-139.032576L288.615424 634.125324 288.615424 773.157888zM733.5219-5.4272 288.615424-5.4272 288.615424 244.832256l444.906496 0L733.52192-5.4272zM900.3602 217.0255 789.134336 217.0255l0 83.419136L233.001984 300.444636l0-83.419136L121.775104 217.0255 121.775104 522.898432c0 30.6575 24.9549 55.6134 55.6134 55.6134l667.360256 0c30.6565 0 55.6124-24.9559 55.6124-55.6134L900.36116 217.025536zM511.0671 495.0927 260.808704 495.0927c-15.3702 0-27.8067-12.4375-27.8067-27.8067 0-15.3692 12.4375-27.8067 27.8067-27.8067l250.259456 0c15.3692 0 27.8067 12.4375 27.8067 27.8067C538.8749 482.6552 526.4364 495.0927 511.0671 495.0927z"  horiz-adv-x="1024" />

    
    <glyph glyph-name="fanhui2" unicode="&#58931;" d="M371.8476 35.6678c17.5142-18.0138 45.9353-18.0138 63.488 0l225.705 232.3259c17.5052 18.0522 17.5052 47.312 0 65.3258l-225.705 232.3214c-17.5527 18.0522-45.9738 18.0522-63.488 0-17.5482-18.0229-17.5482-47.2803 0-65.3326l193.9655-199.6506-193.9655-199.6212C354.3017 82.9843 354.3017 53.7269 371.8476 35.6678z"  horiz-adv-x="1024" />

    
    <glyph glyph-name="yonghu" unicode="&#58880;" d="M512.3246 354.7092c-193.1479 0-349.737-213.3545-349.737-476.545 0-8.7296 0.1915-17.4868 0.5468-26.1765h698.38336c0.382 8.6886 0.5458 17.4459 0.5458 26.1765C862.0636 141.3558 705.5012 354.7092 512.3246 354.7092zM515.5768 403.7281c97.4889 0 176.5632 76.9423 176.5632 171.8088 0 94.8531-79.0743 171.7811-176.5632 171.7811-97.4899 0-176.5356-76.928-176.5356-171.7811C339.0413 480.6694 418.0869 403.7281 515.5768 403.7281z"  horiz-adv-x="1024" />

    
    <glyph glyph-name="gouxuankuang" unicode="&#58932;" d="M896 812 128 812C57.344 812 0 754.656 0 684l0-768c0-70.656 57.344-128 128-128l768 0c70.656 0 128 57.344 128 128L1024 684C1024 754.656 966.656 812 896 812zM960-84c0-35.392-28.608-64-64-64L128-148c-35.328 0-64 28.608-64 64L64 684c0 35.328 28.672 64 64 64l768 0c35.392 0 64-28.672 64-64L960-84z"  horiz-adv-x="1024" />

    
    <glyph glyph-name="richengbiao" unicode="&#58881;" d="M864-180l-704 0c-35.328 0-64 28.672-64 64l0 704c0 35.36 28.672 64 64 64l64 0 0-32c0-53.024 42.976-96 96-96 52.992 0 96 42.976 96 96l0 32 192 0 0-32c0-53.024 43.008-96 96-96s96 42.976 96 96l0 32 64 0c35.328 0 64-28.64 64-64l0-704c0-35.328-28.672-64-64-64zM864 428l-704 0 0-544 704 0 0 544zM320 268l-96 0 0 96 96 0 0-96zM320 108l-96 0 0 96 96 0 0-96zM320-52l-96 0 0 96 96 0 0-96zM480 268l-96 0 0 96 96 0 0-96zM480 108l-96 0 0 96 96 0 0-96zM480-52l-96 0 0 96 96 0 0-96zM640 268l-96 0 0 96 96 0 0-96zM640 108l-96 0 0 96 96 0 0-96zM640-52l-96 0 0 96 96 0 0-96zM800 268l-96 0 0 96 96 0 0-96zM800 108l-96 0 0 96 96 0 0-96zM800-52l-96 0 0 96 96 0 0-96zM703.008 556c-34.816 0-63.008 28.224-63.008 63.008l0 65.984c0 34.816 28.192 63.008 63.008 63.008s63.008-28.192 63.008-63.008l0-65.984c0-34.784-28.192-63.008-63.008-63.008zM319.008 556c-34.816 0-63.008 28.224-63.008 63.008l0 65.984c0 34.816 28.192 63.008 63.008 63.008s63.008-28.192 63.008-63.008l0-65.984c0-34.784-28.224-63.008-63.008-63.008z"  horiz-adv-x="1024" />

    
    <glyph glyph-name="dian" unicode="&#59171;" d="M354.916352 436.044544l305.64864 0 0-274.930688-305.64864 0 0 274.930688Z"  horiz-adv-x="1024" />

    
    <glyph glyph-name="tongzhi" unicode="&#58882;" d="M0 395.026176l0-192.009216c0-35.344384 28.689408-64 64-64l64 0L128 459.026176l-64 0C28.688384 459.026176 0 430.37056 0 395.026176zM843.999232 518.693632l0-65.842176c66.965504-19.11808 115.999744-80.715776 115.999744-153.826304 0-73.114624-49.035264-134.716416-115.999744-153.832448l0-65.844224c102.62528 20.448256 179.999744 111.013888 179.999744 219.676672C1024 407.682816 946.624512 498.2464 843.999232 518.693632zM704 455.808768l0-67.221504c37.061632-13.310976 64-47.872 64-89.562112 0-41.66144-26.938368-76.258304-64-89.536512l0-67.250176c73.0624 14.839808 128 79.372288 128 156.786688C832 376.43136 777.061376 440.964864 704 455.808768zM192 139.01696 640-52.98304 640 651.025152 192 459.026176Z"  horiz-adv-x="1024" />

    
    <glyph glyph-name="xiajiantou" unicode="&#58933;" d="M69.264384 523.761408 68.657152 523.761408-0.917504 454.682368 510.718976-53.297408 1022.30528 454.632192 952.677376 523.761408 952.175616 523.761408 952.17664 523.761408 510.718976 85.460736 69.264384 523.761408Z"  horiz-adv-x="1024" />

    
    <glyph glyph-name="icon1" unicode="&#59019;" d="M757.206016 166.064896c0-98.934784-68.960256-183.469056-196.706304-204.588032l0-114.562048L450.320384-153.085184 450.320384-47.38176c-74.556416 3.308544-146.753536 24.431616-189.021184 47.838208l33.287168 130.084864c46.696448-25.550848 112.323584-48.960512 184.639488-48.960512 64.533504 0 107.844608 25.550848 107.844608 68.911104 0 42.246144-35.674112 69.011456-119.062528 96.847872-118.890496 40.050688-200.040448 95.58016-200.040448 203.47392 0 98.93888 68.839424 175.731712 187.777024 197.972992L455.744512 754.439936l109.083648 0 0-97.820672c73.389056-2.286592 123.4176-18.878464 162.35008-36.788224l-33.383424-125.657088c-27.83744 13.431808-80.106496 39.027712-160.15872 39.027712-72.19712 0-95.629312-32.264192-95.629312-63.4112 0-35.523584 38.982656-60.101632 134.608896-94.457856C704.891904 328.563456 757.157888 267.389696 757.206016 166.064896z"  horiz-adv-x="1024" />

    
    <glyph glyph-name="duanxin" unicode="&#58934;" d="M512.0256 747.921152c-247.411712 0-448.032768-200.557568-448.032768-448.014336 0-247.400448 200.62208-448.017408 448.032768-448.017408 247.468032 0 448.032768 200.61696 448.032768 448.017408C960.058368 547.363584 759.493632 747.921152 512.0256 747.921152zM773.378048 113.173248 250.702848 113.173248 250.702848 362.268416 433.472512 235.561728c23.307264-15.927296 51.01568-22.806528 78.553088-22.926336 27.419648 0.059392 55.098368 6.99904 78.462976 22.926336l182.889472 126.706688L773.378048 113.173248zM773.378048 434.956032 556.47744 284.678912c-10.643456-7.46496-27.47392-12.367872-44.45184-12.30848-17.122304-0.059392-33.953792 4.84352-44.512256 12.30848L250.702848 434.89664l0 51.740672 522.6752 0L773.378048 434.956032z"  horiz-adv-x="1024" />

    
    <glyph glyph-name="orders" unicode="&#59053;" d="M434.819072 82.421504 283.895808 266.636032 272.013312 256.901888 434.418688 58.672896 783.698944 456.793856 772.153344 466.923264ZM886.960128 678.468352 636.567552 678.468352c-4.639744 20.18816-14.852096 38.720512-29.861888 53.730304-21.090304 21.090304-49.13152 32.705536-78.957568 32.705536-29.826048 0-57.868288-11.615232-78.958592-32.705536-15.009792-15.009792-25.22112-33.54112-29.860864-53.730304L168.751104 678.468352l-51.2 0 0-51.2 0-708.967424 0-51.2 51.2 0 718.208 0 51.2 0 0 51.2L938.159104 627.268352l0 51.2L886.960128 678.468352zM335.466496 623.366912l131.931136 0c0 0-0.093184 15.587328-0.110592 26.602496-0.001024 1.155072-0.002048 2.25792-0.002048 3.269632 0 10.13248 2.504704 19.675136 6.909952 28.063744 0.585728 1.115136 1.191936 2.21696 1.8432 3.289088 0.063488 0.104448 0.13312 0.203776 0.196608 0.3072 10.643456 17.28 29.729792 28.804096 51.514368 28.804096 33.391616 0 60.464128-27.071488 60.464128-60.464128 0-0.309248 0-0.626688 0.001024-0.950272-0.003072-10.98752-0.052224-28.92288-0.052224-28.92288l132.083712 0c23.149568 0 41.920512-16.202752 41.920512-36.191232s-18.770944-36.191232-41.920512-36.191232L335.466496 550.983424c-23.150592 0-41.920512 16.202752-41.920512 36.191232S312.315904 623.366912 335.466496 623.366912zM886.960128-81.698048 168.751104-81.698048l0 708.9664L299.42784 627.268352c-1.250304-0.91136-2.468864-1.86368-3.641344-2.875392-11.350016-9.798656-17.601536-23.016448-17.601536-37.218304 0-14.201856 6.250496-27.419648 17.601536-37.218304 10.706944-9.242624 24.798208-14.333952 39.68-14.333952l384.779264 0c14.880768 0 28.973056 5.090304 39.68 14.332928 11.35104 9.798656 17.600512 23.017472 17.600512 37.218304 0 14.200832-6.250496 27.419648-17.600512 37.218304-1.173504 1.012736-2.393088 1.96608-3.644416 2.87744l130.678784 0L886.960128-81.698048zM509.508608 626.916096c5.226496-3.536896 11.580416-5.610496 18.348032-5.608448 4.508672-0.001024 8.843264 0.917504 12.772352 2.581504 5.89824 2.496512 10.892288 6.64576 14.42816 11.8784 3.536896 5.226496 5.610496 11.580416 5.608448 18.348032 0.001024 4.508672-0.917504 8.843264-2.581504 12.773376-2.496512 5.897216-6.64576 10.891264-11.8784 14.427136-5.226496 3.536896-11.580416 5.610496-18.348032 5.607424-4.508672 0.001024-8.844288-0.917504-12.773376-2.581504-5.897216-2.496512-10.891264-6.64576-14.427136-11.8784-3.536896-5.226496-5.610496-11.580416-5.607424-18.348032-0.001024-4.508672 0.917504-8.843264 2.581504-12.772352C500.12672 635.446016 504.275968 630.452992 509.508608 626.916096zM511.776768 660.905728c1.317888 3.121152 3.540992 5.80096 6.330368 7.683072 2.794496 1.882112 6.110208 2.972672 9.749504 2.975744 2.429952-0.001024 4.706304-0.488448 6.78912-1.368064 3.121152-1.318912 5.80096-3.540992 7.684096-6.330368 1.882112-2.794496 2.971648-6.110208 2.97472-9.749504-0.001024-2.429952-0.488448-4.70528-1.368064-6.78912-1.318912-3.121152-3.540992-5.80096-6.330368-7.683072-2.794496-1.882112-6.110208-2.972672-9.749504-2.975744-2.429952 0.001024-4.706304 0.488448-6.78912 1.368064-3.121152 1.318912-5.80096 3.540992-7.684096 6.330368-1.882112 2.794496-2.971648 6.110208-2.97472 9.749504C510.409728 656.54656 510.897152 658.822912 511.776768 660.905728z"  horiz-adv-x="1024" />

    
    <glyph glyph-name="icon20" unicode="&#58935;" d="M350.363648 298.073856c0 12.34944-13.062144 22.454272-29.026304 22.454272l-195.417088 0c-15.965184 0-29.026304-10.104832-29.026304-22.454272s13.062144-22.454272 29.026304-22.454272l195.417088 0C337.301504 275.619584 350.363648 285.724416 350.363648 298.073856zM373.12 217.746176c-6.17472 10.69568-22.539264 12.914688-36.365312 4.932608l-169.23648-97.709056c-13.826048-7.98208-20.08576-23.264256-13.91104-33.958912s22.539264-12.914688 36.365312-4.932608l169.23648 97.708032C373.036032 191.769344 379.295744 207.05152 373.12 217.746176zM432.992256 159.5584c-10.69568 6.17472-25.976832-0.084992-33.958912-13.91104l-97.709056-169.23648c-7.98208-13.826048-5.763072-30.189568 4.932608-36.365312s25.976832 0.084992 33.958912 13.91104l97.709056 169.23648C445.906944 137.019136 443.686912 153.38368 432.992256 159.5584zM513.936384 139.101952c-12.34944 0-22.454272-13.062144-22.454272-29.026304l0-195.417088c0-15.965184 10.104832-29.026304 22.454272-29.026304s22.454272 13.062144 22.454272 29.026304l0 195.417088C536.390656 126.040832 526.285824 139.101952 513.936384 139.101952zM594.264064 161.859328c-10.69568-6.17472-12.914688-22.539264-4.932608-36.365312l97.709056-169.23648c7.98208-13.826048 23.264256-20.08576 33.958912-13.91104s12.914688 22.539264 4.932608 36.365312l-97.709056 169.23648C620.240896 161.774336 604.95872 168.034048 594.264064 161.859328zM652.45184 221.73056c-6.17472-10.69568 0.084992-25.976832 13.91104-33.958912l169.23648-97.709056c13.826048-7.98208 30.190592-5.763072 36.365312 4.932608 6.17472 10.69568-0.084992 25.976832-13.91104 33.959936l-169.23648 97.708032C674.991104 234.645248 658.62656 232.425216 652.45184 221.73056zM672.908288 302.674688c0-12.34944 13.062144-22.454272 29.026304-22.454272l195.417088 0c15.965184 0 29.026304 10.104832 29.026304 22.454272 0 12.350464-13.062144 22.454272-29.026304 22.454272L701.934592 325.12896C685.970432 325.12896 672.908288 315.024128 672.908288 302.674688zM650.151936 383.002368c6.17472-10.69568 22.539264-12.914688 36.365312-4.932608l169.23648 97.709056c13.826048 7.98208 20.08576 23.264256 13.91104 33.958912-6.17472 10.69568-22.539264 12.914688-36.365312 4.932608l-169.23648-97.709056C650.236928 408.9792 643.976192 393.698048 650.151936 383.002368zM590.27968 441.190144c10.69568-6.17472 25.976832 0.084992 33.958912 13.91104l97.709056 169.23648c7.98208 13.826048 5.763072 30.190592-4.932608 36.365312-10.69568 6.17472-25.976832-0.084992-33.958912-13.91104l-97.709056-169.23648C577.364992 463.729408 579.585024 447.364864 590.27968 441.190144zM509.335552 461.646592c12.34944 0 22.454272 13.062144 22.454272 29.026304l0 195.417088c0 15.965184-10.104832 29.026304-22.454272 29.026304s-22.454272-13.062144-22.454272-29.026304l0-195.417088C486.88128 474.708736 496.986112 461.646592 509.335552 461.646592zM429.007872 438.89024c10.69568 6.17472 12.914688 22.539264 4.932608 36.365312l-97.709056 169.23648c-7.98208 13.826048-23.264256 20.08576-33.958912 13.91104-10.69568-6.17472-12.914688-22.539264-4.932608-36.365312l97.709056-169.23648C403.03104 438.975232 418.313216 432.71552 429.007872 438.89024zM370.820096 379.017984c6.17472 10.69568-0.084992 25.976832-13.91104 33.959936l-169.23648 97.709056c-13.826048 7.98208-30.190592 5.762048-36.365312-4.932608-6.17472-10.69568 0.084992-25.976832 13.91104-33.958912l169.23648-97.709056C348.280832 366.103296 364.645376 368.323328 370.820096 379.017984z"  horiz-adv-x="1024" />

    
    <glyph glyph-name="icon01" unicode="&#58936;" d="M525.750272 743.470848c23.327744-9.655296 34.39616-36.415488 24.753152-59.713536-9.649152-23.313408-36.391936-34.424832-59.71968-24.768512-23.329792 9.65632-34.41152 36.421632-24.762368 59.736064C475.66336 742.021888 502.42048 753.126144 525.750272 743.470848zM903.529472 117.043968c-90.385408-218.377216-341.577728-322.50368-559.954944-232.119296S21.070848 226.5024 111.456256 444.879616C156.552192 553.836288 241.928192 637.4592 351.8464 680.319744c8.82176 3.451904 18.7648-0.917504 22.201344-9.732096 3.437568-8.834048-0.898048-18.763776-9.74336-22.20544-101.131264-39.448576-179.673088-116.369408-221.164544-216.615936-83.155968-200.910848 12.645376-432.00512 213.549056-515.158016s432.002048 12.638208 515.158016 213.549056-12.645376 432.00512-213.549056 515.158016c-8.748032 3.620864-12.908544 13.641728-9.284608 22.397952s13.64992 12.905472 22.397952 9.284608C889.787392 586.613504 993.91488 335.421184 903.529472 117.043968z"  horiz-adv-x="1024" />

    
    <glyph glyph-name="shezhi" unicode="&#58883;" d="M915.056 396l-78.768 0c-7.424 16-17.952 49.28-31.424 72.992l55.632 54.064c17.568 17.568 17.584 45.2 0.032 62.736l-63.504 63.12c-17.536 17.536-45.968 17.344-63.536-0.208l-52.528-55.712C657.28 606.448 624 616.896 608 624.32L608 703.072C608 727.904 581.696 748 556.912 748l-89.808 0C442.304 748 416 727.904 416 703.072l0-78.768c-16-7.424-49.264-17.952-72.976-31.408l-54.08 55.632c-17.568 17.568-45.216 17.568-62.736 0.032l-63.12-63.52c-17.52-17.52-17.36-45.952 0.208-63.536l55.728-52.528C205.552 445.264 195.12 412 187.696 396L108.944 396C84.096 396 64 369.696 64 344.912l0-89.808C64 230.32 84.096 204 108.944 204l78.768 0c7.424-16 17.968-49.264 31.408-72.976l-55.632-54.096c-17.568-17.568-17.568-45.184-0.032-62.72l63.504-63.136c17.52-17.52 45.968-17.344 63.536 0.224l52.528 55.728C366.736-6.432 400-16.88 416-24.304l0-78.768C416-127.904 442.304-148 467.088-148l89.808 0C581.68-148 608-127.904 608-103.056l0 78.768c16 7.424 49.264 17.968 72.992 31.424l54.08-55.632c17.568-17.568 45.184-17.568 62.72-0.032l63.136 63.504c17.52 17.536 17.344 45.968-0.224 63.536l-55.728 52.528C818.432 154.752 828.88 188 836.304 204l78.768 0C939.904 204 960 230.304 960 255.088l0 89.808C960 369.696 939.904 396 915.056 396zM512 97.968c-111.6 0-202.064 90.464-202.064 202.048 0 111.6 90.464 202.064 202.064 202.064 111.616 0 202.064-90.464 202.064-202.064C714.064 188.432 623.616 97.968 512 97.968z"  horiz-adv-x="1024" />

    
    <glyph glyph-name="bi" unicode="&#58937;" d="M641.648 643.408 855.36 429.68 385.2-40.528 171.456 173.216 641.648 643.408zM727.136 728.864l213.744-213.728-64.128-64.08L663.008 664.784 727.136 728.864zM150.096 151.824l213.728-213.712L64.608-147.392 150.096 151.824zM809.984 731.568l133.584-133.6c22.112-22.096 20.928-59.216-2.672-82.832-23.648-23.6-60.704-24.784-82.832-2.64l-133.616 133.552c-22.112 22.16-20.928 59.216 2.688 82.816C750.768 752.48 787.824 753.664 809.984 731.568z"  horiz-adv-x="1024" />

    
    <glyph glyph-name="shijian" unicode="&#59071;" d="M511.998465 811.976464C229.227934 811.976464 0.004093 582.757922 0.004093 300c0-282.758945 229.224864-511.975441 511.994372-511.975441 282.769508 0 511.997442 229.216495 511.997442 511.975441C1023.995907 582.757922 794.767973 811.976464 511.998465 811.976464zM511.998465-165.433428c-257.066073 0-465.451475 208.398354-465.451475 465.432405 0 257.0801 208.385402 465.432405 465.451475 465.432405 257.066073 0 465.451475-208.354352 465.451475-465.432405C977.44994 42.966972 769.064538-165.433428 511.998465-165.433428zM767.997186 299.997953 535.269401 299.997953 535.269401 602.530244c0 12.861936-10.428941 23.271006-23.270936 23.271006-12.839949 0-23.272983-10.408047-23.272983-23.271006L488.725482 276.728994c0-12.841469 10.433034-23.27203 23.272983-23.27203l255.998721 0c12.839949 0 23.272983 10.43056 23.272983 23.27203C791.268122 289.588883 780.837135 299.997953 767.997186 299.997953z"  horiz-adv-x="1024" />

    
    <glyph glyph-name="shezhi3" unicode="&#59032;" d="M960.225968 338.95522c0 7.68196-2.931892 15.362896-8.798747 21.228487-5.864808 5.864568-13.525592 8.797363-21.185353 8.797363l-45.828599 0c-18.997435 0-39.088828 14.81645-44.735663 32.93818l-23.768284 57.732889c-8.930759 16.698311-5.252846 41.340547 8.097754 54.757115l32.522003 32.477692c5.427838 5.427616 8.798747 12.933567 8.798747 21.228487 0 8.293897-3.326905 15.800871-8.798747 21.249977l-55.197351 55.107085c-5.427838 5.427616-12.912607 8.775874-21.185353 8.775874s-15.801518-3.370771-21.229357-8.775874l-32.522003-32.521694c-13.3506-13.394055-38.081854-17.070794-54.803362-8.097422l-57.691251 23.74582c-18.034464 5.602601-32.917016 25.737174-32.917016 44.711318L580.983386 718.202731c0 7.659447-2.932916 15.341407-8.798747 21.206998-5.864808 5.865591-13.525592 8.798387-21.185353 8.798387l-77.95866 0c-7.703765 0-15.363525-2.932796-21.229357-8.798387-5.864808-5.864568-8.797724-13.546527-8.797724-21.206998l0-45.893236c0-18.974144-14.751563-39.108716-32.873012-44.711318l-57.735255-23.74582c-16.764489-8.973372-41.364755-5.339612-54.715354 8.097422l-32.654015 32.499182c-5.427838 5.427616-12.956611 8.754385-21.229357 8.754385-8.272746 0-15.757514-3.369747-21.185353-8.775874l-55.065339-55.063083c-5.427838-5.427616-8.754743-12.912078-8.798747-21.206998 0-8.272407 3.370909-15.779382 8.798747-21.206998l32.479023-32.543184c13.437584-13.438057 17.115497-38.058804 8.097754-54.757115l-23.768284-57.776891c-5.602831-18.120706-25.694225-32.937157-44.690636-32.937157l-45.873626 0.042979c-7.703765 0-15.364549-2.932796-21.229357-8.797363-5.864808-5.865591-8.798747-13.546527-8.798747-21.228487l0-77.932953c0-7.68196 2.932916-15.363919 8.798747-21.228487 5.864808-5.844102 13.525592-8.775874 21.229357-8.775874l45.873626 0c18.996411-0.044002 39.044824-14.859429 44.647655-32.93818l23.812288-57.732889c8.929736-16.742313 5.29685-41.451064-8.097754-54.801117l-32.566007-32.476669c-5.427838-5.427616-8.798747-12.93459-8.798747-21.251 0-8.272407 3.369885-15.800871 8.798747-21.228487l55.196328-55.107085c5.427838-5.428639 12.912607-8.775874 21.186376-8.775874 8.272746 0 15.801518 3.347235 21.229357 8.775874l32.566007 32.499182c13.3506 13.371542 37.949842 17.048281 54.627346 7.988951l57.866243-23.74582c18.121449-5.624091 32.873012-25.714661 32.873012-44.711318l0-45.718251c0-7.68196 2.932916-15.362896 8.797724-21.228487 5.865831-5.843078 13.525592-8.775874 21.229357-8.775874l77.914656 0c7.703765 0 15.364549 2.932796 21.229357 8.775874 5.864808 5.865591 8.798747 13.546527 8.798747 21.228487l0 45.718251c0 18.996656 14.882552 39.087227 32.917016 44.711318l57.779259 23.74582c16.720485 9.060353 41.407735 5.383614 54.846343-7.988951l32.347011-32.476669c5.427838-5.450129 12.912607-8.842389 21.229357-8.842389 8.272746-0.021489 15.801518 3.326768 21.229357 8.775874l55.197351 55.151088c5.471842 5.449106 8.798747 12.95608 8.798747 21.251s-3.370909 15.800871-8.798747 21.228487l-32.522003 32.476669c-13.3506 13.350053-17.028513 38.057781-8.097754 54.801117l23.768284 57.732889c5.646835 18.077727 25.825213 32.894178 44.735663 32.894178l45.828599 0c7.659761 0 15.320545 2.931772 21.185353 8.798387 5.865831 5.864568 8.798747 13.546527 8.798747 21.228487L960.226991 338.95522 960.225968 338.95522zM684.505282 300.042979c0-95.222735-77.169659-172.34523-172.373782-172.34523-95.248127 0-172.418809 77.122495-172.418809 172.34523 0 95.200222 77.170682 172.367743 172.418809 172.367743C607.335623 472.410722 684.505282 395.243201 684.505282 300.042979"  horiz-adv-x="1024" />

    
    <glyph glyph-name="yonghuzu" unicode="&#58884;" d="M373.182315 348.236608c-170.889927 0-309.41033-186.903807-309.41033-417.46902 0-7.659447 0.186249-15.341407 0.480974-22.958898l617.837222 0c0.305981 7.616468 0.481997 15.298428 0.481997 22.958898C682.572178 161.3328 544.029261 348.236608 373.182315 348.236608zM376.028246 391.176582c86.276434 0 156.204881 67.408249 156.204881 150.530388 0 83.099626-69.928448 150.486386-156.204881 150.486386-86.233453 0-156.139387-67.38676-156.139387-150.486386C219.888859 458.584831 289.794793 391.176582 376.028246 391.176582zM753.834048 201.864936c-14.97056 0-29.503127-2.254344-43.510716-6.325056 39.176836-74.849732 62.420142-166.003801 62.420142-264.620843 0-7.659447-0.132012-15.341407-0.481997-22.979364l187.699443 0c0.174993 5.077645 0.263 10.155291 0.263 15.275915C960.224945 77.095257 867.819679 201.864936 753.834048 201.864936zM859.940922 330.925337c0 55.479569-46.662628 100.43341-104.224937 100.43341-57.561285 0-104.223913-44.953841-104.223913-100.43341 0-55.459103 46.662628-100.43341 104.223913-100.43341C813.278294 230.491926 859.940922 275.466234 859.940922 330.925337z"  horiz-adv-x="1024" />

    
    <glyph glyph-name="zuzhijigou" unicode="&#58938;" d="M195.483029 290.68689l297.897663 0 0-93.079932 37.236568 0 0 93.079932L828.515947 290.68689l0-111.697965 37.237592 0L865.753539 327.922956 530.617261 327.922956l0 74.471109-37.236568 0 0-74.471109L158.245438 327.922956l0-148.934031 37.237592 0L195.483029 290.68689zM269.957189 141.75286 83.771278 141.75286c-10.290789 0-18.617772-8.335852-18.617772-18.61701l0-148.95245c0-10.272971 8.326984-18.618033 18.617772-18.618033l186.185912 0c10.273392 0 18.618796 8.345062 18.618796 18.618033l0 148.95245C288.575985 133.417007 280.230581 141.75286 269.957189 141.75286zM605.092444 141.75286 418.906533 141.75286c-10.290789 0-18.618796-8.335852-18.618796-18.61701l0-148.95245c0-10.272971 8.328007-18.618033 18.618796-18.618033l186.185912 0c10.273392 0 18.618796 8.345062 18.618796 18.618033l0 148.95245C623.71124 133.417007 615.365836 141.75286 605.092444 141.75286zM940.226676 141.75286 754.040764 141.75286c-10.291812 0-18.618796-8.335852-18.618796-18.61701l0-148.95245c0-10.272971 8.328007-18.618033 18.618796-18.618033l186.185912 0c10.273392 0 18.618796 8.345062 18.618796 18.618033l0 148.95245C958.845471 133.417007 950.500067 141.75286 940.226676 141.75286zM363.050145 458.24714l297.897663 0c10.273392 0 18.618796 8.335852 18.618796 18.618033L679.566604 625.808414c0 10.290367-8.345404 18.627243-18.618796 18.627243L363.050145 644.435657c-10.290789 0-18.618796-8.335852-18.618796-18.627243l0-148.94324C344.431349 466.582993 352.759356 458.24714 363.050145 458.24714z"  horiz-adv-x="1024" />

    
    <glyph glyph-name="weibiaoti9" unicode="&#58885;" d="M879.872 530.272 675.2 530.272 675.2 587.744C675.2 640.736 618.496 683.872 548.736 683.872L471.936 683.872C402.88 683.872 348.864 641.632 348.864 587.744L348.864 530.272 150.336 530.272C105.6 530.272 70.464 498.528 70.464 458.144L70.464 395.872l0-48 0-43.328c0-7.04 3.904-13.632 10.112-16.96C82.24 286.752 92.288 281.44 108.864 273.504l0-314.496c0-20.8 14.72-43.072 36.736-43.072l729.472 0c22.592 0 40.128 23.104 40.128 43.072L915.2 273.504c16.576 7.936 26.624 13.248 28.224 14.144 6.272 3.328 10.112 9.856 10.112 16.96L953.536 347.872 953.536 395.872 953.536 458.144C953.6 499.936 922.56 530.272 879.872 530.272M387.2 587.744c0 31.808 38.016 57.664 84.736 57.664l76.736 0c46.912 0 88.128-27.008 88.128-57.664L636.8 530.272l-249.6 0L387.2 587.744zM876.8-40.8c0-1.344-1.728-3.904-3.072-4.864L148.48-45.664C147.84-44.448 147.264-42.656 147.264-40.992L147.264 255.968c64.768-28.224 168.96-67.2 278.4-81.984L425.664 155.872c0-21.184 17.216-38.4 38.4-38.4l96 0c21.184 0 38.4 17.216 38.4 38.4L598.464 173.92c109.44 14.848 213.632 53.824 278.4 82.048L876.864-40.8zM464 155.872l0 96 96 0 0-96L464 155.872zM915.2 316.32c-37.632-18.752-174.016-83.008-316.8-103.552L598.4 251.872c0 21.184-17.216 38.4-38.4 38.4l-96 0c-21.184 0-38.4-17.216-38.4-38.4l0-39.104C282.88 233.184 146.496 297.504 108.864 316.32L108.864 347.872 108.864 395.872 108.864 458.144C108.864 479.264 129.984 491.872 150.336 491.872l729.536 0c21.44 0 35.328-13.248 35.328-33.728L915.2 395.872l0-48L915.2 316.32z"  horiz-adv-x="1024" />

    
    <glyph glyph-name="dianhua" unicode="&#58939;" d="M456.53 285.561c-71.475 71.43-139.791 154.183-107.033 186.896 46.792 46.838 87.583 75.671 4.65 178.913-82.936 103.239-138.256 23.959-183.65-21.434-52.298-52.344-2.752-247.454 190.101-440.349 192.856-192.809 388.009-242.443 440.349-190.059 45.394 45.351 124.628 100.625 21.437 183.603-103.195 82.983-132.074 42.19-178.914-4.645C610.712 145.862 528.002 214.132 456.53 285.561L456.53 285.561 456.53 285.561z"  horiz-adv-x="1024" />

    
    <glyph glyph-name="yonghuming" unicode="&#58886;" d="M358.065416 339.949874c-58.668548 29.100782-97.862781 93.321432-97.862781 168.93455 0 102.749152 75.444294 186.04423 168.508596 186.04423 93.066349 0 168.510643-83.294055 168.510643-186.04423 0-75.396177-39.082688-139.512451-97.480049-168.736029 144.447635-34.715663 253.83741-173.11578 260.997776-341.046466l-663.803973-0.481977C106.108921 164.35974 214.91334 304.587482 358.065416 339.949874zM568.80452 673.399315c38.816618-41.537022 62.941027-99.709933 62.941027-164.105568 0-59.481719-20.584648-113.65555-54.316249-154.313551l0.005117-0.001023c105.026218-49.877991 184.421659-152.995533 210.30418-278.58181l0 0.00614 150.093446 0.107447c-6.364202 149.248186-103.584321 272.251637-231.963343 303.106366 51.900124 25.970488 86.634606 82.95534 86.634606 149.962453 0 91.317799-67.050793 165.346839-149.763928 165.346839-27.557742 0-53.378862-8.218172-75.559932-22.555715"  horiz-adv-x="1024" />

    
    <glyph glyph-name="xiajiantou1" unicode="&#58940;" d="M663.831 205.51c-12.608 12.608-33.009 12.608-45.618 0l-73.978-73.979L544.235 664.751c0 17.812-14.423 32.259-32.259 32.259-17.835 0-32.259-14.447-32.259-32.259l0-533.222-73.98 73.979c-12.607 12.608-33.008 12.608-45.616 0-12.609-12.608-12.609-33.008 0-45.617L512 8.014l151.88 151.878c12.608 12.609 12.608 33.011 0 45.618L663.831 205.51z"  horiz-adv-x="1024" />

    
    <glyph glyph-name="zhuanfa1" unicode="&#58941;" d="M819.287394-38.954829 103.228196-38.954829 103.228196 624.290851l397.813281 0 0 39.005362L103.228196 663.296213c-21.972308 0-39.781635-17.460674-39.781635-39.005362l0-663.246703c0-21.546735 17.809327-39.015595 39.781635-39.015595l716.059198 0c21.971284 0 39.781635 17.46886 39.781635 39.015595L859.069029 234.143083l-39.781635 0L819.287394-38.954829zM799.39146 682.809639l0-58.518788c0 0 109.938289-97.544617 110.649516-97.544617-424.973964 0-408.999499-292.603151-408.999499-292.603151l39.781635 0c0 0-6.642553 253.597789 369.217864 253.597789-1.017208 0-110.649516-117.046786-110.649516-117.046786l0-58.518788 159.128587 175.565575 0 39.005362L799.39146 682.809639z"  horiz-adv-x="1024" />

    
    <glyph glyph-name="saoyisao1" unicode="&#59048;" d="M928.388584 269.046011 94.531783 269.046011c-17.705969 0-32.073777 14.366196-32.073777 32.066323 0 17.705244 14.367808 32.072463 32.073777 32.072463l833.855778 0c17.7336 0 32.073777-14.368242 32.073777-32.072463C960.461338 283.412207 946.122184 269.046011 928.388584 269.046011L928.388584 269.046011zM832.17237-115.802054 639.746082-115.802054c-17.7336 0-32.072754 14.33959-32.072754 32.073486 0 17.732873 14.339154 32.072463 32.072754 32.072463l192.426288 0c17.705969 0 32.073777 14.366196 32.073777 32.066323L864.246147 140.761276c0 17.733896 14.334037 32.073486 32.0748 32.073486 17.7336 0 32.067637-14.33959 32.067637-32.073486l0-160.351058C928.388584-72.631836 885.22069-115.802054 832.17237-115.802054L832.17237-115.802054zM351.099486-115.802054l-160.358652 0c-53.04218 0-96.209051 43.171242-96.209051 96.212272L94.531783 140.761276c0 17.733896 14.366784 32.073486 32.067637 32.073486 17.704946 0 32.073777-14.33959 32.073777-32.073486l0-160.351058c0-17.700127 14.397485-32.066323 32.067637-32.066323l160.358652 0c17.705969 0 32.073777-14.33959 32.073777-32.072463C383.173263-101.462464 368.805455-115.802054 351.099486-115.802054L351.099486-115.802054zM126.600444 429.397069c-17.700853 0-32.067637 14.367219-32.067637 32.066323L94.532807 621.81445c0 53.045123 43.167894 96.211249 96.209051 96.211249l160.358652 0c17.705969 0 32.073777-14.367219 32.073777-32.072463 0-17.699104-14.367808-32.066323-32.073777-32.066323l-160.358652 0c-17.670152 0-32.067637-14.402011-32.067637-32.072463L158.674221 461.463392C158.674221 443.763265 144.305389 429.397069 126.600444 429.397069L126.600444 429.397069zM896.320948 429.397069c-17.740763 0-32.0748 14.367219-32.0748 32.066323L864.246147 621.81445c0 17.671475-14.367808 32.072463-32.073777 32.072463L639.746082 653.886913c-17.7336 0-32.072754 14.367219-32.072754 32.066323 0 17.705244 14.339154 32.072463 32.072754 32.072463l192.426288 0c53.04832 0 96.216214-43.166125 96.216214-96.211249L928.388584 461.463392C928.388584 443.763265 914.054547 429.397069 896.320948 429.397069L896.320948 429.397069zM896.320948 429.397069"  horiz-adv-x="1024" />

    
    <glyph glyph-name="zhuanfa2" unicode="&#58942;" d="M958.395133 241.842439l-0.00307-1.023306-126.17895-104.267738 0 0.008186 0-139.356908c0-9.611915-7.792804-17.404392-17.405122-17.404392L209.545065-20.201719c-9.612319 0-17.405122 7.792477-17.405122 17.404392L192.139943 410.579491c0 9.611915 7.792804 17.404392 17.405122 17.404392L314.120092 427.983883c0 0 0 0 0 0l-0.157596 0c52.471204 94.378507 116.981088 126.926808 117.915406 127.394459L81.51897 555.378341c-9.612319 0-17.405122-7.792477-17.405122-17.404392l0-667.584498c0-9.611915 7.792804-17.404392 17.405122-17.404392L942.139231-147.01494c9.612319 0 17.405122 7.792477 17.405122 17.404392L959.544354 241.842439 958.395133 241.842439zM958.392063 463.628708 684.813994 682.437156l0-137.000234c-137.372343-0.016373-223.83716-52.884464-278.218957-117.452016l-0.010233 0c0 0 0 0 0 0l0.010233 0c-85.318665-101.299127-91.658313-231.398184-91.658313-231.398184 99.887064 164.049287 161.346344 194.778148 352.896838 194.778148l16.980432 0 0-155.38393L958.392063 463.628708z"  horiz-adv-x="1024" />

    
    <glyph glyph-name="rizhi42x36" unicode="&#58887;" d="M650.703238 461.596952 269.409524 461.596952c-24.064 0-43.593143 19.480381-43.593143 43.495619 0 24.015238 19.529143 43.495619 43.593143 43.495619l381.293714 0c24.088381 0 43.568762-19.456 43.568762-43.495619C694.296381 481.077333 674.816 461.596952 650.703238 461.596952zM612.668952 286.41981 269.409524 286.41981c-24.064 0-43.593143 19.480381-43.593143 43.495619 0 24.015238 19.529143 43.495619 43.593143 43.495619l343.259429 0c24.088381 0 43.617524-19.480381 43.617524-43.495619C656.286476 305.90019 636.757333 286.41981 612.668952 286.41981zM504.856381 111.242667 269.409524 111.242667c-24.064 0-43.593143 19.480381-43.593143 43.52 0 23.990857 19.529143 43.471238 43.593143 43.471238l235.446857 0c24.088381 0 43.593143-19.480381 43.593143-43.471238C548.449524 130.723048 528.944762 111.242667 504.856381 111.242667zM491.27619-63.910095l-221.866667 0c-24.064 0-43.593143 19.480381-43.593143 43.471238 0 24.039619 19.529143 43.52 43.593143 43.52l221.866667 0c24.064 0 43.593143-19.480381 43.593143-43.52C534.869333-44.429714 515.34019-63.910095 491.27619-63.910095zM803.08419-212 165.814857-212c-39.765333 0-72.118857 32.280381-72.118857 71.972571L93.696 677.270857c0 39.66781 32.353524 71.972571 72.118857 71.972571l637.293714 0c39.789714 0 72.118857-32.304762 72.118857-71.972571l0-41.764571-65.389714 0L809.837714 677.270857c0 3.730286-3.023238 6.729143-6.729143 6.729143L165.814857 684c-3.730286 0-6.753524-3.023238-6.753524-6.729143l0-817.298286c0-3.705905 3.023238-6.729143 6.753524-6.729143l637.293714 0c3.705905 0 6.729143 3.023238 6.729143 6.729143L809.837714 108.804571l65.389714 0 0-248.832C875.203048-179.719619 842.873905-212 803.08419-212zM715.239619 42.122667 652.409905 69.84381 875.910095 574.261333 938.691048 546.51581ZM715.239619 9.500952c-4.534857 0-9.045333 0.926476-13.238857 2.755048l-62.805333 27.721143c-16.530286 7.289905-23.990857 26.550857-16.700952 43.032381l223.50019 504.441905c3.510857 7.92381 10.020571 14.116571 18.090667 17.237333 8.118857 3.120762 17.091048 2.901333 25.039238-0.585143l62.805333-27.745524c16.481524-7.289905 23.942095-26.550857 16.65219-43.008l-223.47581-504.393143c-3.535238-7.92381-10.020571-14.116571-18.115048-17.237333C723.18781 10.208 719.189333 9.500952 715.239619 9.500952zM695.515429 86.471619l2.998857-1.340952 197.046857 444.732952-2.998857 1.340952L695.515429 86.471619zM620.324571-82.756571 621.348571 72.964571 740.961524 20.228571ZM292.59581 812l383.683048 0 0-161.938286-383.683048 0 0 161.938286Z"  horiz-adv-x="1024" />

    
    <glyph glyph-name="gongwenbao" unicode="&#58888;" d="M510.333-144.95c-117.606-0.014-235.199-0.064-352.798 0.012-66.395 0.039-91.677 24.664-91.818 89.739-0.26 116.508 0.498 233.025-0.912 349.517-0.364 29.711 9.809 41.434 39.353 40.433 39.155-1.328 78.394-0.775 117.58-0.138 19.462 0.319 30.707-5.839 32.008-27.187 1.933-31.667 23.815-37.135 50.551-37.46 27.72-0.336 52.135 4.666 54.789 37.087 1.825 22.378 13.158 27.298 31.613 27.292 80.582-0.031 161.157-0.14 241.732 0.086 17.739 0.05 27.758-4.685 28.989-25.55 1.895-32.174 24.421-39.398 53.008-38.963 28.212 0.423 50.552 6.343 51.459 39.955 0.51 18.978 11.621 24.265 27.604 24.325 44.642 0.172 89.286-0.083 133.929 0.116 20.925 0.092 28.153-10.274 28.063-30.58-0.535-125.214 0.294-250.443-0.733-375.651-0.376-45.632-30.457-72.667-78.559-72.866C754.235-145.269 632.283-144.942 510.333-144.95zM658.186 397.311c-99.395 0-196.707 0-293.528 0-11.34 54.908-29.322 70.235-72.216 63.17-21.377-3.519-37.624-13.897-38.236-37.397-0.599-23.406-12.367-28.922-33.335-28.392-42.397 1.069-84.845 0.596-127.267 0.345-18.43-0.113-28.588 6.833-28.078 26.743 0.779 30.109-7.103 63.696 19.507 85.692 15.526 12.836 37.757 24.612 57.061 24.743 244.751 1.644 489.52 1.468 734.276 0.82 61.63-0.166 102.457-67.571 76.812-125.206-2.662-5.988-13.141-11.874-20.12-12.034-47.833-1.075-95.743-1.589-143.53 0.318-7.997 0.319-19.842 11.981-22.458 20.646-10.81 35.843-23.781 46.714-59.573 44.363-31.753-2.087-46.915-19.349-47.17-50.702C660.304 407.214 659.321 404.017 658.186 397.311zM509.293 744.33c96.325 0.156 184.397-61.742 212.436-149.316 4.603-14.361 13.453-33.576-8.69-36.794-13.731-1.997-31.588 7.587-43.776 16.952-9.379 7.217-11.95 22.739-19.015 33.616-69.951 107.683-223.942 101.767-285.501-10.851-4.689-8.58-6.438-22.313-13.298-25.429-14.51-6.601-31.491-7.769-47.464-11.164-1.333 11.323-6.565 23.917-3.376 33.776C329.012 682.792 415.879 744.183 509.293 744.33zM280.84 360.57c2.163 24.311-5.756 57.075 24.261 57.863 31.983 0.842 28.333-32.047 27.848-55.36-0.473-22.507 6.93-55.996-26.227-55.982C272.111 307.103 285.096 341.893 280.84 360.57zM738.716 350.856c-1.734-11.672 8.959-44.037-24.171-44.152-31.421-0.111-26.088 31.025-26.803 52.993-0.368 11.806-1.861 25.135 2.821 35.109 4.824 10.258 16.555 17.272 25.269 25.704 7.626-9.327 17.829-17.619 22.105-28.289C741.664 382.902 738.716 370.908 738.716 350.856z"  horiz-adv-x="1024" />

    
    <glyph glyph-name="youjian" unicode="&#58889;" d="M512.091 645.054c116.242 0 232.484 0.014 348.727-0.007 41.522-0.008 76.321-12.188 94.842-53.167 8.25-18.251 6.5-30.831-13.43-43.256-137.452-85.695-274.125-172.655-410.534-260.014-14.762-9.456-24.638-9.569-39.498-0.041C354.353 376.959 216.033 464.601 77.465 551.86c-12.701 8.002-16.368 15.572-12.01 29.962 9.882 32.627 30.845 52.873 63.868 59.66 13.656 2.806 27.953 3.4 41.966 3.431C284.888 645.17 398.492 645.057 512.091 645.054zM510.888-44.021c-117.998 0-235.996-0.134-353.993 0.067-47.671 0.083-79.295 22.331-91.17 61.206-4.28 14.027-2.127 22.232 10.858 30.356 108.193 67.725 215.807 136.366 324.233 203.713 7.275 4.519 21.51 4.25 29.378 0.171 22.589-11.713 44.026-25.859 64.999-40.383 11.823-8.191 21.091-8.623 33.117-0.325 20.993 14.484 43.689 26.52 64.549 41.176 12.159 8.539 20.73 7.176 32.785-0.537 106.04-67.844 212.318-135.315 319.158-201.894 16.481-10.272 18.065-21.564 12.577-37.407-12.35-35.666-45.183-55.999-92.491-56.081C746.889-44.149 628.886-44.021 510.888-44.021zM64.376 485.075c97.051-61.769 192.332-122.409 290.508-184.898-97.877-62.309-192.719-122.68-290.508-184.932C64.376 239.326 64.376 360.489 64.376 485.075zM959.665 484.832c0-124.369 0-244.164 0-369.253-97.913 62.322-192.914 122.792-290.001 184.589C766.993 362.146 861.628 422.405 959.665 484.832z"  horiz-adv-x="1024" />

    
    <glyph glyph-name="search" unicode="&#58943;" d="M1012.574-157.992l-246.11 246.054c-1.482 1.482-3.341 2.102-4.985 3.288 63.138 75.010 101.295 171.691 101.295 277.401 0 238.157-193.105 431.249-431.347 431.249-238.188-0-431.32-193.092-431.32-431.249 0-238.184 193.132-431.249 431.347-431.249 105.526 0 202.078 37.977 277.019 100.858 1.186-1.644 1.832-3.531 3.315-5.013l246.11-246.054c15.091-15.121 39.586-15.121 54.676 0 15.091 15.121 15.091 39.594 0 54.715zM431.454 18.362c-193.455 0-350.262 156.867-350.262 350.39s156.807 350.39 350.262 350.39 350.262-156.867 350.262-350.39-156.834-350.39-350.262-350.39z"  horiz-adv-x="1024" />

    
    <glyph glyph-name="circularegistration" unicode="&#58944;" d="M512 780C246.784 780 32 565.152 32 300c0-265.152 214.784-480 480-480 265.152 0 480 214.848 480 480C992 565.152 777.152 780 512 780zM200.384-2.144l46.4 74.816 30.592-29.824L200.384-2.144zM293.184 50.08l-36.8 36.032 81.344 131.2 2.496 3.968 91.904-89.856L293.184 50.08zM447.424 142.688 353.344 234.592l308.288 301.184 94.272-92.16L447.424 142.688zM804.096 491.104l-26.624-25.984-94.144 91.84 26.624 26.048c25.92 25.408 68.16 25.408 94.144 0C830.208 557.664 830.208 516.512 804.096 491.104z"  horiz-adv-x="1024" />

    
    <glyph glyph-name="gouxuanchoose" unicode="&#58945;" d="M429.44-148 0 295.52l110.08 89.6L358.4 187.36c101.76 122.88 327.68 366.72 639.36 560.64L1024 686.56C737.92 419.68 503.68 44 429.44-148z"  horiz-adv-x="1024" />

    
    <glyph glyph-name="icon05" unicode="&#58890;" d="M255.274667 423.861333l506.88 0c11.2 0 20.330667 9.152 20.330667 20.330667 0 11.221333-9.130667 20.373333-20.330667 20.373333l-506.88 0c-11.221333 0-20.352-9.152-20.352-20.373333C234.922667 432.992 244.053333 423.861333 255.274667 423.861333zM996.437333 96.202667c0 44.181333-13.781333 85.141333-37.205333 118.933333L959.232 631.733333c0 37.994667-30.826667 68.842667-68.821333 68.842667L620.394667 700.576C610.24 757.728 560.362667 801.333333 500.309333 801.333333c-60.032 0-109.994667-43.562667-120.106667-100.778667L96.384 700.554667c-37.909333 0-68.821333-30.848-68.821333-68.842667l0-764.266667c0-37.952 30.890667-68.8 68.821333-68.8l794.048 0c37.973333 0 68.821333 30.826667 68.821333 68.8l0 109.802667C982.656 11.04 996.437333 52 996.437333 96.202667zM660.117333 75.893333c-11.242667 0-20.330667 9.109333-20.330667 20.309333 0 11.221333 9.088 20.352 20.330667 20.352l106.368 0 0 100.778667c0 11.264 9.173333 20.330667 20.373333 20.330667 11.157333 0 20.352-9.066667 20.352-20.330667l0-100.778667 106.432 0c1.024 0 1.962667-0.448 2.965333-0.554667l0-39.530667c-1.002667-0.149333-1.941333-0.576-2.965333-0.576l-106.432 0 0-111.936c0-11.242667-9.152-20.416-20.352-20.416s-20.373333 9.173333-20.373333 20.416l0 111.936L660.117333 75.893333 660.117333 75.893333zM500.309333 758.624c36.437333 0 67.136-24.597333 76.48-58.005333l-152.96 0C433.152 734.005333 463.914667 758.624 500.309333 758.624zM916.565333-132.533333c0-14.421333-11.754667-26.090667-26.154667-26.090667L96.384-158.624c-14.378667 0-26.069333 11.669333-26.069333 26.090667L70.314667 631.733333c0 14.4 11.690667 26.154667 26.069333 26.154667l303.189333 0 201.450667 0c0.170667 0 0.341333 0 0.448 0L890.453333 657.888c14.357333 0 26.154667-11.754667 26.154667-26.154667l0-371.264c-35.626667 28.096-80.490667 44.992-129.344 44.992-45.376 0-87.253333-14.613333-121.514667-39.168l-410.453333 0c-11.221333 0-20.352-9.130667-20.352-20.352 0-11.2 9.130667-20.352 20.352-20.352l367.744 0c-28.117333-35.626667-44.992-80.512-44.992-129.365333 0-8.277333 0.597333-16.405333 1.536-24.448L255.274667 71.776c-11.221333 0-20.352-9.109333-20.352-20.309333 0-11.221333 9.130667-20.394667 20.352-20.394667l333.226667 0c27.413333-83.626667 105.962667-144.064 198.72-144.064 48.874667 0 93.738667 16.896 129.344 44.949333L916.565333-132.533333 916.565333-132.533333z"  horiz-adv-x="1024" />

    
    <glyph glyph-name="duanxin1" unicode="&#58946;" d="M954.224844 619.442426l0.577145 0L70.647013 619.442426l0.571005 0L954.224844 619.442426zM512.865717 131.411327l-29.134551 27.232225-97.160877 87.660502L106.003266-19.100642l813.447587 0L639.081327 246.323497l-97.091292-89.24151L512.865717 131.411327zM64.230883 544.878197l0-513.369184 274.584776 256.685103L64.230883 544.878197zM960.548876 31.583714 960.548876 544.790192 686.226067 288.194116 960.548876 31.583714zM512.854461 206.585447l441.370383 412.856979L71.216995 619.442426 512.854461 206.585447zM512.854461 206.585447"  horiz-adv-x="1024" />

    
    <glyph glyph-name="01" unicode="&#58947;" d="M512 735c-246.854 0-447-200.146-447-447 0-246.853 200.147-447 447-447 246.854 0 447 200.147 447 447 0 246.854-200.146 447-447 447zM512 705.2c230.048 0 417.199-187.152 417.199-417.2 0-104.822-38.951-200.671-103.018-274.034-1.603 4.685-3.203 9.385-5.021 13.968-31.080 78.547-94.129 143.471-173.474 178.365-0.218 0.087-0.421 0.159-0.626 0.262 31.647 33.38 51.189 78.367 51.189 128.002 0 102.875-83.377 186.25-186.25 186.25-102.874 0-186.25-83.375-186.25-186.25 0-49.648 19.555-94.652 51.218-128.046-0.394-0.175-0.742-0.291-1.15-0.466-78.851-34.646-141.898-99.57-172.98-178.117-1.818-4.598-3.418-9.283-5.019-13.968-64.065 73.363-103.018 169.212-103.018 274.034 0 230.048 187.152 417.2 417.2 417.2zM616.314 218.303c-9.313-8.366-19.541-15.729-30.657-21.697-21.975-11.77-47.030-18.491-73.657-18.491-26.628 0-51.714 6.722-73.686 18.507-11.117 5.968-21.316 13.315-30.629 21.682-31.909 28.664-52.135 70.091-52.135 116.26 0 86.272 70.178 156.45 156.45 156.45s156.449-70.177 156.449-156.45c0-46.17-20.224-87.597-52.135-116.261zM221.101-10.653c1.062 3.885 2.095 7.813 3.302 11.494 26.963 82.721 92.5 151.082 176.909 184.185 30.965-22.96 69.174-36.714 110.688-36.714 41.5 0 79.693 13.735 110.644 36.686 83.799-32.349 149.858-100.999 176.968-184.156 1.193-3.666 2.226-7.594 3.288-11.494-75.213-73.281-177.84-118.547-290.9-118.547s-215.687 45.266-290.899 118.546z"  horiz-adv-x="1024" />

    
    <glyph glyph-name="36" unicode="&#59034;" d="M873.438 132.324c-86.949 56.876-93.59 108.873-93.59 299.531 0 162.784-107.549 221.527-216.648 234.945 0.889 3.93 1.461 8.523 1.461 12.77 0 30.463-24.711 55.431-55.16 55.431-30.463 0-55.145-24.576-55.145-55.024 0-4.262 0.558-8.237 1.476-12.213-109.1-13.387-211.679-71.046-211.679-233.86 0-190.642-6.656-244.732-93.619-301.609-86.934-56.861-86.919-178.053-20.089-178.053 54.332 0 708.84 0 763.081 0 66.875-0.001 66.875 121.191-20.088 178.082zM908.479-1.291c-4.051-13.628-11.144-13.628-14.953-13.628l-763.081 0c-3.794 0-10.872 0-14.923 13.613-7.424 24.922 3.931 76.422 51.893 107.789 102.368 66.951 107.578 136.416 107.578 327.419 0 121.523 60.385 188.007 184.589 203.247l34.018 4.171-7.726 33.385c-0.467 2.048-0.678 3.674-0.678 5.271 0 13.342 10.902 24.184 24.305 24.184 13.417 0 24.32-11.038 24.32-24.591 0-1.762-0.271-4.051-0.708-5.963l-7.515-33.25 33.837-4.171c125.785-15.465 189.573-84.208 189.573-204.331 0-189.467 5.21-258.391 107.549-325.341 47.992-31.397 59.346-82.882 51.922-107.804zM512.001-159c-44.573 0-81.663 33.792-86.858 77.101h173.717c-5.196-43.309-42.286-77.101-86.859-77.101z"  horiz-adv-x="1024" />

    
    <glyph glyph-name="jiaoyu" unicode="&#59201;" d="M310.651202 464.595732l-107.436918 0 0-295.313889 107.436918 0L310.651202 464.595732zM310.651202 540.052285c0 20.418029-14.799054 36.96489-34.92851 36.96489l-37.579897 0c-20.12741 0-34.92851-16.546861-34.92851-36.96489l0-38.116109 107.436918 1.157359L310.651202 540.052285zM238.142795 61.475512l37.579897 0c20.129456 0 34.92851 16.556071 34.92851 36.972053l0 33.878598-107.436918 0 0-33.878598C203.214285 78.031583 218.014362 61.475512 238.142795 61.475512zM494.383784 615.900763c0 20.407796-16.313547 36.96489-36.443004 36.96489l-75.163887 0c-20.12741 0-33.404808-16.557094-33.404808-36.96489l0-38.497802 145.011698-1.158383L494.383784 615.900763zM494.383784 539.669568 349.372086 539.669568l0-368.846626 145.011698-0.381693L494.383784 539.669568zM382.776893 61.475512l75.163887 0c20.129456 0 36.443004 16.556071 36.443004 36.972053l0 33.495882L349.372086 131.943446l0-33.495882C349.372086 78.031583 362.649484 61.475512 382.776893 61.475512zM566.512544 60.324292l110.090351 0c20.128433 0 36.443004 16.549931 36.443004 36.966936L713.045899 539.669568c0 20.418029-16.314571 36.96489-36.443004 36.96489L566.512544 576.634458c-20.125363 0-36.443004-16.546861-36.443004-36.96489l0-442.378339C530.068518 76.875247 546.387181 60.324292 566.512544 60.324292zM822.375933 429.944538c0 20.411889-14.038738 36.957727-34.166147 36.957727l-5.693676 0c-20.125363 0-32.648584-18.09103-32.648584-38.498826l0-72.76628 72.509431 0L822.376956 429.944538zM822.375933 316.748453l-72.509431-0.382717 0-108.576881 72.509431 1.540076L822.375933 316.748453zM782.51611 60.324292l5.693676 0c20.12741 0 34.166147 16.549931 34.166147 36.966936l0 73.15002-72.509431-1.539053 0-73.151044C749.867526 75.333124 762.390747 60.324292 782.51611 60.324292zM1020.537132-13.597301c0 0 3.417843 31.185256-10.249435 38.122249L858.820983 173.522424l0-121.282251c0 0 7.973602-31.181163-34.165124-31.181163L200.558805 21.05901c0 0-34.165124 2.300392-34.165124 40.416502L166.393681 172.363018 12.647041 24.524948c0 0-11.389398 2.306532-10.249435-34.657334 0-43.88858 11.387351-42.730197 11.387351-42.730197l994.158345 0.173962C1027.303232-53.836771 1020.537132-13.597301 1020.537132-13.597301z"  horiz-adv-x="1024" />

    
    <glyph glyph-name="icon" unicode="&#58891;" d="M60.945559 102.645167l112.715131 0 0-28.193109-112.715131 0 0 28.193109ZM60.945559-38.317309l112.715131 0 0-28.193109-112.715131 0 0 28.193109ZM850.338287 553.740028l0-56.385195 56.384172 0 0-592.087013-84.576257 0L822.146201 751.061093 117.274472 751.061093 117.274472 694.715807l84.578304 0 0-84.577281L117.274472 610.138526l0-56.398498 84.578304 0 0-84.577281L117.274472 469.162748l0-56.385195 84.578304 0 0-84.591607L117.274472 328.185946l0-56.384172 84.578304 0 0-84.578304L117.274472 187.22347l0-56.386218 84.578304 0 0-84.578304L117.274472 46.258948l0-56.384172 84.578304 0 0-84.606956L117.274472-94.73218l0-56.329936 704.869682 0 84.576257 0 56.331983 0 0 56.329936L963.052394 497.354833l0 28.193109 0 28.192086L850.338287 553.740028zM286.404474 132.407004c0 0-0.469698 46.556339 13.682627 64.810075 8.148587 7.764847 48.290843 34.496675 91.680049 40.829917 43.280736 6.387477 31.44313 54.292534 32.873712 53.604872 1.37737-0.743944-0.358157 10.254551-0.358157 10.254551s-26.706245 30.243815-26.348088 57.513902c0.329505 27.284413 0 45.178969 0 45.178969 0 0.014326-0.881067 64.686255 43.472094 64.686255l27.229155-11.93482c39.839357 0 42.674938-52.751435 42.674938-52.751435l0-49.171909c0 0-1.708921-37.318954-26.65201-51.264571 0 0-1.763157-10.998495-0.329505-10.283204 1.37737 0.688685-2.560312-49.446156 40.774659-55.834656 43.3626-6.333242 75.518974-33.066093 83.697237-40.829917 8.148587-7.819083 13.682627-64.810075 13.682627-64.810075L286.404474 132.404957zM654.172535 131.304903c0 0-1.321088 66.573231-4.019547 69.90307-2.698458 3.359514-2.918469 16.685008-33.147958 35.461653 3.247974 9.195429 0.24764 11.673877 0.769526 11.426237 0.881067-0.440022-0.220011 6.277984-0.220011 6.277984s-20.841677 18.473747-20.61962 35.156708c0.220011 16.685008 0 29.27986 0 29.27986s4.349051 37.70474 31.41243 37.70474l23.842011-2.642177c24.311709 0 26.761504-35.062564 26.761504-35.062564l0-31.702026c0 0-7.517207-22.823821-22.768563-31.385824 0 0-1.073448-6.691399-0.220011-6.249331 0.87902 0.440022 0.962931-30.203906 27.449165-34.112935 26.457582-3.90903 34.276664-20.180622 39.287795-24.970718 4.982478-4.762467 14.674211-59.71708 14.674211-59.71708L654.172535 131.304903zM60.945559 243.608665l112.715131 0 0-28.195156-112.715131 0 0 28.195156ZM60.945559 525.547942l112.715131 0 0-28.193109-112.715131 0 0 28.193109ZM60.945559 666.524744l112.715131 0 0-28.193109-112.715131 0 0 28.193109ZM60.945559 384.584444l112.715131 0 0-28.205389-112.715131 0 0 28.205389Z"  horiz-adv-x="1024" />

    
    <glyph glyph-name="55" unicode="&#58948;" d="M512 747C265.146 747 65 546.854 65 300c0-246.854 200.146-447 447-447 246.854 0 447 200.146 447 447C959 546.854 758.854 747 512 747zM512-117.2C281.952-117.2 94.8 69.952 94.8 300S281.952 717.2 512 717.2 929.2 530.048 929.2 300 742.048-117.2 512-117.2zM683.35 491.743 511.971 320.364 340.65 491.743 320.25 471.313 491.6 299.978 320.264 128.658 340.65 108.271 511.971 279.592 683.35 108.258 703.736 128.658 532.414 299.978 703.75 471.357Z"  horiz-adv-x="1024" />

    
    <glyph glyph-name="gongwenbao1" unicode="&#58892;" d="M429.833629 310.586103l164.335812 0 0-63.514569-164.335812 0 0 63.514569ZM635.258255 204.72917 388.748908 204.72917 388.748908 247.664028c-157.035546 0-287.590997 0-287.590997 0l0-279.06174c0-33.290197 26.869974-60.275805 60.419068-60.275805l700.853206 0c33.364899 0 60.419068 27.197432 60.419068 60.275805L922.849252 247.664028c0 0-130.558521 0-287.590997 0L635.258255 204.72917zM903.930367 585.815561 676.339906 585.815561c0 58.462506-73.574692 105.85898-164.339906 105.85898-90.76112 0-164.332742-47.396473-164.332742-105.85898L120.076796 585.815561c-33.136701 0-60.007699-26.825972-60.007699-59.981093l0-176.438455c0-33.126468 27.054169-59.981093 60.007699-59.981093l268.672112 0 0 63.514569 246.509347 0 0-63.514569 268.672112 0c33.136701 0 59.999512 26.825972 59.999512 59.981093l0 176.438455C963.930903 558.96196 936.883897 585.815561 903.930367 585.815561zM388.748908 585.815561c0 35.07689 55.181787 63.514569 123.251092 63.514569 68.076468 0 123.258255-28.436656 123.258255-63.514569L388.748908 585.815561z"  horiz-adv-x="1024" />

    
    <glyph glyph-name="icon46" unicode="&#58949;" d="M154.630776-146.708971l714.738447 0 0 89.337701-714.738447 0L154.630776-146.708971zM690.684612 434.01218l0 312.697815-357.369224 0 0-312.697815-178.684612 0 0-44.671409L512 76.647049l357.369224 312.693722 0 44.671409L690.684612 434.01218z"  horiz-adv-x="1024" />

    
    <glyph glyph-name="ttpodicon" unicode="&#58950;" d="M514.945075 533.150084c-12.81998 0-23.224957-10.381441-23.224957-23.224957l0-341.169263-88.76465 88.741114c-9.080819 9.080819-23.781636 9.080819-32.839943 0-9.080819-9.057283-9.080819-23.759123 0-32.839943l128.408555-128.385019c4.529153-4.551666 10.474562-6.804986 16.419971-6.804986 5.945409 0 11.890818 2.25332 16.419971 6.804986l128.408555 128.385019c9.080819 9.080819 9.080819 23.781636 0 32.839943-9.080819 9.080819-23.781636 9.080819-32.839943 0l-88.76465-88.741114L538.167986 509.925127C538.169009 522.768643 527.765055 533.150084 514.945075 533.150084zM810.129005 52.865413c-4.319375-4.761444-8.755408-9.428743-13.284561-13.957897-9.080819-9.080819-9.080819-23.759123 0-32.839943 4.529153-4.529153 10.474562-6.804986 16.419971-6.804986 5.945409 0 11.867282 2.275833 16.419971 6.804986 5.063319 5.085832 10.009981 10.264784 14.84101 15.58393 8.616238 9.499351 7.919367 24.176632-1.578961 32.79287C833.423547 63.084149 818.745243 62.364765 810.129005 52.865413zM925.856749 467.284981C874.693486 593.254997 772.737396 688.104225 646.11758 727.493328 503.425717 771.851605 343.128895 740.406428 227.91178 645.32491 113.832582 551.172553 52.264341 401.165074 67.220984 253.874473c14.700817-144.967696 103.651708-278.346449 232.106312-348.159468 65.865103-35.765575 139.719158-53.67241 213.573213-53.67241s147.684574 17.905812 213.549677 53.67241c11.263531 6.108115 15.467273 20.228717 9.336646 31.492248-6.154163 11.241019-20.205181 15.421224-31.515784 9.336646-118.027114-64.123436-264.713964-64.145949-382.764614 0-115.171066 62.566988-194.900945 182.103478-208.068849 311.998897-13.423731 132.078131 41.780569 266.571265 144.06207 350.946954 103.233176 85.234243 246.854201 113.405863 374.821711 73.621764 113.289206-35.208896 204.585515-120.256898 250.500241-233.313813 45.89119-112.917746 39.760562-237.424434-16.814967-341.564259-6.131651-11.263531-1.950422-25.361621 9.31311-31.492248 11.310603-6.108115 25.361621-1.904373 31.492248 9.31311C970.053344 202.477896 976.9975 341.408085 925.856749 467.284981z"  horiz-adv-x="1024" />

    
    <glyph glyph-name="llmainpageback" unicode="&#59016;" d="M480.591151 595.807123M475.940225 636.767M369.112174 297.136789l381.074112 379.929032c13.155624 13.132088 13.155624 34.387181 0 47.494711l-11.905144 11.879562c-13.179161 13.107529-34.485419 13.107529-47.642067 0l-416.844803-415.544181c-13.131065-13.131065-13.131065-34.388205 0-47.51927l416.844803-415.544181c13.155624-13.106506 34.511002-13.106506 47.642067 0l11.905144 11.879562c13.155624 13.107529 13.155624 34.362622 0 47.51927L369.112174 297.136789z"  horiz-adv-x="1024" />

    
    <glyph glyph-name="gengduo" unicode="&#58893;" d="M511.998465 568.925892c49.504484 0 89.64367 40.137139 89.64367 89.641623s-40.139186 89.641623-89.64367 89.641623c-49.502437 0-89.6406-40.137139-89.6406-89.641623S462.495004 568.925892 511.998465 568.925892zM511.998465 389.641623c-49.502437 0-89.6406-40.138162-89.6406-89.642646s40.138162-89.641623 89.6406-89.641623c49.504484 0 89.64367 40.137139 89.64367 89.641623S561.502949 389.641623 511.998465 389.641623zM511.998465 31.075131c-49.502437 0-89.6406-40.09416-89.6406-89.642646 0-49.503461 40.138162-89.641623 89.6406-89.641623 49.504484 0 89.64367 40.138162 89.64367 89.641623C601.641111-9.019029 561.502949 31.075131 511.998465 31.075131z"  horiz-adv-x="1024" />

    
    <glyph glyph-name="qiyeyonghu" unicode="&#59174;" d="M307.204 607.197333C307.204 720.317333 398.885333 812 512 812c113.12 0 204.802667-91.682667 204.802667-204.802667 0-113.114667-91.682667-204.796-204.802667-204.796C398.885333 402.401333 307.204 494.082667 307.204 607.197333L307.204 607.197333zM785.136 334.136l-37.786667 0L534.974667-97.073333 614.401333 300l-102.401333 102.401333L409.598667 300l79.433333-397.073333L276.652 334.136l-37.786667 0C102.401333 334.136 102.401333 242.416 102.401333 129.333333l0-341.333333 819.197333 0L921.598667 129.333333C921.598667 242.416 921.598667 334.136 785.136 334.136L785.136 334.136zM785.136 334.136"  horiz-adv-x="1024" />

    
    <glyph glyph-name="fanhui3" unicode="&#58951;" d="M738.145103 641.751172 663.234207 716.662069 313.114483 366.542345 312.937931 366.701241 238.768552 292.549517 238.945103 292.372966 238.768552 292.214069 313.679448 217.303172 313.838345 217.462069 658.996966-127.696552 733.166345-53.509517 388.007724 291.631448Z"  horiz-adv-x="1024" />

    
    <glyph glyph-name="yonghu1" unicode="&#58894;" d="M947.923862-151.760552c0-21.751172-17.619862-39.371034-39.353379-39.371034-21.751172 0-39.371034 17.619862-39.371034 39.371034l-0.353103 3.654621c0 1.553655 0.282483 3.054345 0.441379 4.590345-24.576 172.791172-172.720552 299.767172-353.103448 301.762207-1.447724-0.03531-2.824828-0.229517-4.290207-0.229517-1.430069 0-2.807172 0.194207-4.237241 0.229517-178.317241-1.977379-325.049379-126.146207-352.097103-295.936 0.900414-3.336828 1.536-6.779586 1.536-10.398897l0.370759-3.707586c0-22.086621-17.902345-39.988966-39.97131-39.988966s-39.988966 17.902345-39.988966 39.988966l-0.03531 0.353103L76.711724-151.442759c0.105931 1.165241 0.335448 2.277517 0.459034 3.425103 0 3.301517 0.529655 6.426483 1.271172 9.498483 20.497655 159.302621 127.240828 288.097103 272.525241 343.569655-84.585931 54.201379-139.74069 149.963034-139.74069 259.372138 0 169.224828 131.478069 306.405517 300.702897 306.405517 169.207172 0 300.702897-137.18069 300.702897-306.405517 0-109.373793-55.101793-205.117793-139.652414-259.319172 144.278069-55.031172 250.544552-182.324966 272.189793-340.038621 1.465379-4.13131 2.436414-8.527448 2.436414-13.170759L947.923862-151.760552zM743.494621 464.334345c0 127.947034-103.706483 231.653517-231.653517 231.653517s-231.653517-103.724138-231.653517-231.653517c0-127.929379 103.724138-231.635862 231.653517-231.635862S743.494621 336.404966 743.494621 464.334345z"  horiz-adv-x="1024" />

    
    <glyph glyph-name="meiyuan" unicode="&#59023;" d="M537.329387-149.750237l-72.14718 0 0 98.867752c-132.536572 11.039427-217.334887 75.169003-254.384711 192.391798l114.900913 26.720571c20.658506-75.178213 67.153446-115.618251 139.483798-121.313973L465.182206 258.013747c-94.417393 21.726837-155.87614 49.249681-184.375218 82.568531-28.508287 33.308617-42.753733 73.123414-42.753733 119.443369 0 120.060423 75.704193 189.359742 227.128951 207.889771L465.182206 744.871113l72.14718 0 0-76.956719c110.800525-14.254655 180.810019-68.941162 210.027457-164.067706l-108.488877-22.980387c-18.527982 54.861492-52.372811 84.439134-101.539604 88.714508L537.328363 383.067904c69.825298-19.956517 116.854405-35.272341 141.087319-45.960775 24.223704-10.688433 46.042639-31.530111 65.467037-62.527079 19.414165-30.995945 29.125341-67.337641 29.125341-109.022019 0-59.146075-20.132526-108.312868-60.390415-147.500379-40.265052-39.196721-98.691743-62.177108-175.289282-68.940139L537.328363-149.750237zM465.182206 569.580808c-30.996968-0.35918-56.916291-8.108678-77.757968-23.24747-20.842701-15.148002-31.264051-37.500079-31.264051-67.069535 0-49.885154 36.340673-79.627549 109.022019-89.24765L465.182206 569.580808zM537.329387 46.916934c33.485649 0.350994 61.542658 10.154267 84.171028 29.393447 22.621207 19.23918 33.935903 44.357254 33.935903 75.353199 0 52.014654-39.371706 85.325317-118.106932 99.937107L537.329387 46.916934z"  horiz-adv-x="1024" />

    
    <glyph glyph-name="xiayiye" unicode="&#58990;" d="M305.501091 686.982788c-12.838788-13.005576-12.772848-33.923879 0.201697-46.797576l342.207354-339.100444L307.157333-42.750384c-12.873697-13.005576-12.779313-33.923879 0.195232-46.833778 13.010747-12.878869 33.961374-12.77802 46.840242 0.196525l362.136566 365.442586c0.559838 0.566303 0.691717 1.292929 1.221818 1.852768 0.130586 0.137051 0.296081 0.168081 0.429253 0.298667 6.387071 6.454303 9.601293 14.898424 9.601293 23.303758 0 8.504889-3.277576 17.04598-9.797818 23.500283L352.338747 687.149576C339.329293 700.058182 318.378667 699.957333 305.501091 686.982788L305.501091 686.982788zM305.501091 686.982788"  horiz-adv-x="1024" />

    
    <glyph glyph-name="shezhi4" unicode="&#58895;" d="M191.87247 332.488948l639.610376 0 0-64.465221-639.610376 0 0 64.465221ZM191.87247 556.628822l639.610376 0 0-64.465221-639.610376 0 0 64.465221ZM191.87247 108.420707l639.610376 0 0-64.465221-639.610376 0 0 64.465221Z"  horiz-adv-x="1024" />

    
    <glyph glyph-name="iconfont14" unicode="&#58952;" d="M207.166293 619.007521 207.166293 619.007521c6.864338 6.864338 17.992793 6.864338 24.857131 0l267.546475-267.546475c6.864338-6.864338 17.992793-6.864338 24.857131 0l267.548522 267.547499c6.864338 6.864338 17.992793 6.864338 24.856108 0l0.002047-0.002047c6.864338-6.864338 6.864338-17.992793 0-24.857131l-292.4077-292.40463c-6.864338-6.864338-17.992793-6.864338-24.857131 0l-292.403606 292.40463C200.301955 601.013705 200.301955 612.143183 207.166293 619.007521zM207.166293 298.252193 207.166293 298.252193c6.864338 6.864338 17.992793 6.864338 24.857131 0l267.546475-267.546475c6.864338-6.864338 17.992793-6.864338 24.857131 0l267.548522 267.547499c6.864338 6.864338 17.992793 6.864338 24.856108 0l0.002047-0.002047c6.864338-6.864338 6.864338-17.992793 0-24.857131l-292.4077-292.403606c-6.864338-6.864338-17.992793-6.864338-24.857131 0l-292.403606 292.403606C200.301955 280.2594 200.301955 291.388878 207.166293 298.252193zM511.998977 76.414759"  horiz-adv-x="1024" />

    
    <glyph glyph-name="icon2" unicode="&#58896;" d="M935.458943 710.533051 88.810187 710.533051c-13.699 0-24.76708-11.291161-24.76708-25.215288l0-198.173478c0-13.947663 11.067057-25.264407 24.76708-25.264407l24.77015 0 0-542.896684c0-13.925151 11.06808-25.215288 24.718985-25.215288l747.622392 0c13.700023 0 24.768103 11.289114 24.768103 25.215288L910.689816 461.879877 935.458943 461.879877c13.700023 0 24.77015 11.316743 24.77015 25.264407l0 198.173478C960.229093 699.24189 949.158966 710.533051 935.458943 710.533051zM861.203752-55.779006 163.117566-55.779006 163.117566 461.879877l698.086186 0L861.203752-55.779006zM910.689816 512.335013 113.580337 512.335013 113.580337 660.102475l797.110503 0L910.69084 512.335013zM378.639155 198.336576l266.992867 0c47.849798 0 86.663802 25.709545 86.663802 74.42813 0 48.743144-38.815027 88.278579-86.663802 88.278579L378.639155 361.043285c-47.849798 0-86.664825-39.534412-86.664825-88.278579C291.973306 224.046121 330.789357 198.336576 378.639155 198.336576zM378.639155 310.589173l266.992867 0c20.500916 0 37.126572-16.927531 37.126572-37.823444 0-20.871353-16.625656-23.998577-37.126572-23.998577L378.639155 248.767152c-20.500916 0-37.128619 3.127224-37.128619 23.998577C341.510536 293.661641 358.137215 310.589173 378.639155 310.589173z"  horiz-adv-x="1024" />

    
    <glyph glyph-name="fm-jt-x" unicode="&#58953;" d="M814.776 275.384l-302.776-292.966-302.776 294.257 43.233 42.045 216.289-210.186 0.225 485.048h86.487l-0.225-483.738 216.289 208.876z"  horiz-adv-x="1024" />

    
    <glyph glyph-name="infenicon09" unicode="&#59304;" d="M960-64.032 64-64.032 64 663.968l896 0L960-64.032zM120-8.032l784 0L904 607.968 120 607.968 120-8.032zM400 142.688 400 457.312 714.624 300 400 142.688zM456 366.688l0-133.376L589.376 300 456 366.688z"  horiz-adv-x="1024" />

    
    <glyph glyph-name="bangongyongpin" unicode="&#58897;" d="M320 172l384 0 0-64-384 0 0 64ZM320-20l384 0 0-64-384 0 0 64ZM256 748l512 0 0-128 64 0L832 790.624C832 802.464 822.464 812 810.688 812L213.312 812C201.536 812 192 802.464 192 790.624L192 620l64 0L256 748zM981.312 620 42.688 620C19.136 620 0 579.552 0 556l0-469.376C0 63.136 19.136 44 42.688 44L192 44l0-234.624C192-202.464 201.536-212 213.312-212l597.376 0C822.464-212 832-202.464 832-190.624L832 44l149.312 0C1004.864 44 1024 63.136 1024 86.624L1024 556C1024 579.552 1004.864 620 981.312 620zM133.76 393.376c-29.44 0-53.312 23.872-53.312 53.376 0 29.44 23.872 53.312 53.312 53.312 29.504 0 53.376-23.872 53.376-53.312C187.136 417.248 163.264 393.376 133.76 393.376zM768-148 256-148 256 236l512 0L768-148z"  horiz-adv-x="1024" />

    
    <glyph glyph-name="dianhua1" unicode="&#58954;" d="M788.10285 208.465261c-22.672372 4.217045-65.146743-34.283828-65.146743-34.283828 121.4337-76.6968 121.126708-169.83506 121.126708-169.83506s27.622104 13.811564 42.108027 37.524638c14.482853 23.712051 19.432585 51.701522-15.767102 100.714819C835.161632 191.660526 810.838667 204.127466 788.10285 208.465261zM335.314417 604.267818c-22.948665-2.475378-52.313459-51.79362-52.313459-51.79362 138.575102-37.859259 165.55764-126.994346 165.55764-126.994346s23.497157 30.312376 30.432103 57.201793c6.907317 26.859741 2.293229 46.140876-45.741787 82.747609C385.244596 602.037011 358.293781 606.803571 335.314417 604.267818zM511.137865 744.186522c-246.409063 0-446.892143-199.169155-446.892143-443.989023 0-244.760516 200.48308-443.928648 446.892143-443.928648 110.615307 0 211.331149 40.763402 289.432948 107.193371 8.372691 1.64957 30.924313 8.18952 26.034956 31.290657-5.930059 28.355815-50.051953 119.842459-117.887944 160.055322 0 0-25.605168 15.157211-47.974641-12.467963 0 0-34.955116-12.527314-111.316272 61.174268-76.363202 73.765027-145.481396 129.683595-120.487142 204.7605 0 0 11.183713 40.151465-82.991156 93.41353-94.145194 53.352115-101.021811 19.495006-105.665575 5.65172-4.583388-13.842263-30.617321-65.543785-11.183713-115.901707 15.827477-41.006949 66.85771-145.205103 216.983893-287.416012C572.067562-15.148633 649.742642-61.042893 709.939653-62.326119c-59.034535-32.208563-126.748752-50.725288-198.801788-50.725288-229.481532 0-416.182724 185.416943-416.182724 413.249929 0 227.891314 186.701193 413.30928 416.182724 413.30928 229.480508 0 416.183747-185.41899 416.183747-413.30928 0-2.506077-0.367367-4.949732-0.429789-7.455809l30.740118 0c0.061398 2.506077 0.427742 4.949732 0.427742 7.455809C958.059684 545.017366 757.546927 744.186522 511.137865 744.186522z"  horiz-adv-x="1024" />

    
    <glyph glyph-name="xialagengduo" unicode="&#58955;" d="M485.398132 247.579093 511.459694 221.461249 511.49551 221.496042 511.614214 221.375292 537.840528 247.543278 537.762757 247.621049 958.864514 667.787504 932.75281 693.956513 511.63775 273.776755 91.456968 694.891815 65.287959 668.780111 485.475903 247.657888ZM932.038542 379.089289 510.923482-41.089445 90.743724 380.024591 64.573691 353.912887 484.717633-67.165334 484.639862-67.242082 510.802732-93.462257 510.931668-93.332297 510.996137-93.396765 537.12626-67.322923 537.048489-67.246175 958.151269 352.92028Z"  horiz-adv-x="1024" />

    
    <glyph glyph-name="iphoneduanxin" unicode="&#58956;" d="M513.8176 737.633829C231.0528 737.633829 1.801143 549.552457 1.801143 317.481143c0-152.3712 99.214629-285.441829 247.160686-359.113143-15.5904-73.098971-77.308343-131.964343-77.308343-131.964343 95.076571 3.139657 188.759771 61.827657 220.154514 83.410286 39.171657-7.8848 79.879314-12.522057 122.011429-12.522057 282.730057 0 511.981714 188.152686 511.981714 420.189257C1025.799314 549.552457 796.547657 737.633829 513.8176 737.633829z"  horiz-adv-x="1026" />

    
    <glyph glyph-name="duanxin11" unicode="&#59073;" d="M880.390231 613.326125l-736.780463 0c-36.676317 0-66.514903-29.838585-66.514903-66.514903l0-491.186975c0-36.676317 29.838585-66.514903 66.514903-66.514903l736.780463 0c36.676317 0 66.514903 29.838585 66.514903 66.514903l0 491.186975C946.905134 583.488563 917.066549 613.326125 880.390231 613.326125zM143.609769 562.160815l736.780463 0c8.463766 0 15.349593-6.885827 15.349593-15.349593l0-96.532567L516.01443 292.060167 128.260176 451.039995l0 95.771227C128.260176 555.274988 135.146003 562.160815 143.609769 562.160815zM880.390231 40.274654l-736.780463 0c-8.463766 0-15.349593 6.885827-15.349593 15.349593l0 340.116281 378.129037-155.031912c0.130983-0.053212 0.261966-0.099261 0.39295-0.150426 0.146333-0.057305 0.292666-0.113587 0.440022-0.167822 0.51063-0.189312 1.023306-0.367367 1.538029-0.521886 0 0 0.001023 0 0.001023 0 0.547469-0.164752 1.096984-0.303922 1.6465-0.429789 0.102331-0.023536 0.204661-0.046049 0.306992-0.067538 1.118474-0.2415 2.240017-0.406253 3.360538-0.49528 0.10847-0.008186 0.217964-0.016373 0.326435-0.023536 0.561795-0.036839 1.122567-0.062422 1.681292-0.062422 0.00307 0 0.00614 0 0.00921 0s0.00614 0 0.00921 0c0.561795 0 1.125637 0.025583 1.690502 0.063445 0.11154 0.007163 0.223081 0.01535 0.334621 0.024559 1.12666 0.090051 2.255367 0.25685 3.37998 0.50142 0.103354 0.022513 0.205685 0.045025 0.308015 0.068562 1.083681 0.249687 2.162246 0.573051 3.230578 0.973164 0.13303 0.050142 0.26606 0.102331 0.399089 0.154519 0.162706 0.063445 0.325411 0.121773 0.487094 0.189312l369.807511 154.086377 0-339.226005C895.739824 47.160481 888.853997 40.274654 880.390231 40.274654z"  horiz-adv-x="1024" />

    
    <glyph glyph-name="shoucang" unicode="&#59000;" d="M509.606998 752.885512c9.082866 0 17.327644-4.840238 20.996197-12.331863l97.262184-197.441814c5.613858-11.403724 16.663518-19.358907 29.438473-21.216207l223.738737-32.552393c8.420787-1.215688 15.604396-6.851035 18.23327-14.254655 2.520403-7.18361 0.595564-15.062044-5.084808-20.586874L730.253304 294.388053c-8.949836-8.751315-12.994965-21.171182-10.916631-33.370015l38.011732-222.060515c1.325182-7.737218-2.165316-15.426341-8.905834-19.978007-4.088108-2.741437-8.861832-4.155646-13.812587-4.155646-4.022617 0-7.999185 0.972141-11.425214 2.740414L528.149307 120.328785c-5.768377 3.006474-12.155854 4.552689-18.542308 4.552689-6.364965 0-12.727882-1.547239-18.518772-4.552689L296.254819 17.651264c-3.559059-1.855254-7.602142-2.828418-11.668761-2.828418-4.861728 0-9.723455 1.459235-13.546527 4.022617-6.961552 4.684696-10.475586 12.419867-9.127891 20.155039l38.011732 222.016513c2.078335 12.198833-1.988284 24.619724-10.939143 33.370015L125.02397 454.556962c-5.635347 5.492084-7.55814 13.348006-5.061272 20.453844 2.63092 7.481392 9.812483 13.116739 18.298761 14.332427l223.674269 32.552393c12.839423 1.857301 23.867594 9.813506 29.481452 21.216207l97.194646 197.396789C492.325403 748.034017 500.590648 752.885512 509.606998 752.885512M509.606998 791.095765c-24.043602 0-45.922912-13.226233-56.177464-33.95637L356.189863 559.697581l-223.674269-32.54216c-22.983457-3.304256-42.100864-18.718317-49.481971-39.659255-7.381108-21.048385-1.812275-44.23241 14.431687-60.033281l163.916257-160.125931-38.011732-222.016513c-3.868097-22.408359 6.03239-44.819788 25.458835-57.94676 10.69662-7.116071 23.204491-10.784624 35.757388-10.784624 10.298554 0 20.663622 2.475378 30.055526 7.337105l194.987926 102.7205L704.662463-16.072815c9.369392-4.861728 19.712971-7.337105 29.990035-7.337105 12.57541 0 25.082258 3.668553 35.778878 10.784624 19.426445 13.126972 29.305443 35.538401 25.460882 57.94676l-38.012755 222.016513 163.937746 160.125931c16.22145 15.812127 21.810748 38.984896 14.408151 60.033281-7.402597 20.940938-26.51898 36.353976-49.503461 39.659255L663.04767 559.697581l-97.240695 197.441814C555.619962 777.868509 533.695626 791.095765 509.606998 791.095765L509.606998 791.095765z"  horiz-adv-x="1024" />

    
    <glyph glyph-name="shezhi5" unicode="&#58957;" d="M586.318636-144.203918 440.531272-144.203918l-23.75196 146.06775c-15.286148 5.01113-30.281677 11.262508-44.661176 18.615986L250.847142-67.819227 147.727553 35.299339l88.269369 121.331369c-7.521301 14.710027-13.879102 30.036084-18.936281 45.64355L68.909439 225.583127l0 145.831366 148.172691 23.372314c5.167696 15.937994 11.689227 31.575136 19.421328 46.567595l-89.398076 122.779348 103.118566 103.119589 123.55092-89.883123c13.836123 6.971785 28.268834 12.93459 42.986023 17.759479l23.746844 150.943804 145.834436 0 23.74275-150.523225c15.402805-4.980431 30.53648-11.229762 45.076638-18.612916l122.101919 87.866187 103.087866-103.086843-87.900979-122.039497c7.220449-14.210653 13.362332-29.007661 18.293645-44.079938l148.44182-24.204262 0-145.787364-148.419308-24.133653c-4.827959-14.766308-10.80816-29.259394-17.811668-43.171242l86.772272-120.584356L776.641309-65.370455l-119.80562 86.291318c-15.071254-7.766894-30.776957-14.307867-46.769186-19.476587L586.318636-144.203918zM449.234491-133.970856l128.383996 0 23.363104 143.282311 3.01773 0.941442c17.443277 5.438872 34.56012 12.568247 50.875714 21.188578l2.805906 1.481747 117.878734-84.902692 90.780563 90.779539-82.706677 114.933659-2.992147 2.993171 1.718131 3.321652c7.933693 15.3455 14.572904 31.456433 19.733437 47.885614l1.12666 3.583618 5.585205 0 140.148947 22.790052 0 128.383996-139.752928 22.788006-5.980201 0-1.12666 3.583618c-5.284353 16.824177-12.130272 33.327036-20.35049 49.051159l-1.740644 3.330862 3.974521 3.973498 82.985016 115.215068-90.781586 90.779539-114.932636-82.706677-4.251837-4.251837-3.329838 1.740644c-15.936971 8.328689-32.646538 15.242146-49.66412 20.547988l-3.036149 0.946558L577.596997 735.840436 449.258027 735.840436l-22.812565-145.005558 0-3.347235-3.572362-1.139963c-16.236799-5.13802-32.142048-11.710716-47.273676-19.534915l-3.322675-1.718131-2.614547 2.613524-118.385271 86.125543-90.74884-90.74884 87.99717-120.854509-1.493004-2.822278c-8.591679-16.246009-15.70775-33.307593-21.149693-50.709939l-0.947582-3.032056L79.142501 362.670342l0-128.337947 145.770991-22.934339 0.948605-3.034103c5.335519-17.076934 12.287861-33.836643 20.663622-49.812499l1.475608-2.815115-86.853114-119.386064 90.74884-90.747817 119.326712 86.883813 2.817162-1.477654c15.641235-8.204869 32.070416-15.053857 48.832172-20.358677l3.573385-1.12973 0-3.344165L449.234491-133.970856zM513.526773 115.329047c-101.565187 0-184.195116 82.628906-184.195116 184.194092s82.629929 184.195116 184.195116 184.195116 184.195116-82.629929 184.195116-184.195116S615.09196 115.329047 513.526773 115.329047zM513.526773 473.486216c-95.922676 0-173.962054-78.039377-173.962054-173.962054 0-95.922676 78.038354-173.96103 173.962054-173.96103s173.962054 78.039377 173.962054 173.96103C687.488827 395.446839 609.449449 473.486216 513.526773 473.486216z"  horiz-adv-x="1024" />

    
    <glyph glyph-name="tuichu" unicode="&#58958;" d="M753.1682 617.80002c28.205389-20.058848 53.28253-42.782386 75.221192-68.168566 21.937638-25.38618 40.74089-52.806693 56.411801-82.267679 15.669888-29.462009 27.583219-60.649312 35.729759-93.554746 8.146541-32.908504 12.221346-66.284659 12.221346-100.136651 0-58.294684-11.123338-112.981191-33.375132-164.072823-22.251793-51.083445-52.341089-95.589079-90.26277-133.505643-37.926798-37.926798-82.431408-68.012-133.5169-90.264816-51.081399-22.254863-105.776092-33.379225-164.06259-33.379225-57.671491 0-112.048959 11.124362-163.134451 33.379225-51.090609 22.252817-95.746668 52.338019-133.983527 90.264816-38.239929 37.922704-68.325132 82.426291-90.26277 133.505643-21.941732 51.091632-32.908504 105.778138-32.908504 164.078962 0 33.217543 3.913123 65.812915 11.749602 97.781 7.837502 31.968086 18.961864 62.36642 33.376155 91.204212 14.424524 28.829606 32.286334 55.784514 53.597709 80.852446 21.309328 25.077142 45.130873 47.642067 71.458495 67.701938 13.792121 10.030447 28.67611 13.791098 44.661176 11.285021 15.98302-2.511193 28.991288-10.343579 39.020712-23.508413 10.029424-13.166881 13.790074-27.89635 11.285021-44.194548-2.512217-16.298198-10.343579-29.456892-23.509437-39.491433-39.49041-28.829606-69.735248-64.24521-90.732467-106.241696-20.996197-41.99751-31.492248-87.13043-31.492248-135.38955 0-41.370223 7.831362-80.395028 23.503297-117.062136 15.669888-36.671201 37.136805-68.635193 64.401776-95.903234 27.269064-27.269064 59.236126-48.894593 95.909373-64.877613 36.666084-15.98302 75.68168-23.974018 117.061113-23.974018 41.36613 0 80.385818 7.990998 117.052926 23.974018 36.671201 15.98302 68.638263 37.608549 95.90835 64.877613 27.26497 27.267017 48.888454 59.232033 64.87352 95.903234 15.98302 36.667108 23.974018 75.692936 23.974018 117.062136 0 48.88743-11.280928 95.118358-33.846876 138.680503-22.565948 43.561122-54.218856 79.449493-94.961792 107.654882-13.788028 9.401114-22.095227 22.25077-24.915459 38.548968s0.465604 31.339776 9.868765 45.131897c9.406231 13.162788 22.255887 21.157879 38.554084 23.972994C724.333478 630.487993 739.370962 627.201134 753.1682 617.80002L753.1682 617.80002 753.1682 617.80002zM511.534907 270.852146c-16.302291 0-30.252001 5.796006-41.845037 17.392112-11.596106 11.599176-17.395182 25.548886-17.395182 41.84606L452.294688 687.375631c0 16.298198 5.799076 30.404474 17.395182 42.312688 11.593036 11.909238 25.542746 17.86181 41.845037 17.86181 16.921391 0 31.179117-5.952572 42.778292-17.86181 11.594059-11.908214 17.391089-26.01449 17.391089-42.312688l0-357.285313c0-16.297175-5.79703-30.246885-17.391089-41.84606C542.714024 276.649176 528.456299 270.852146 511.534907 270.852146L511.534907 270.852146 511.534907 270.852146zM511.534907 270.852146"  horiz-adv-x="1024" />

    
    <glyph glyph-name="bangongyongpin1" unicode="&#58898;" d="M147.965471 246.045157l-41.323151 0L106.642321 320.513196l42.695405 0 0-73.495898c3.176342 2.264577 6.343475 4.443196 9.444093 6.478552l2.710738 8.234545 20.783349 63.208601c4.091178 12.405541 9.833973 23.975041 16.872273 34.538631L0.020978 359.477626l0-255.234055 79.282694 0C87.315136 168.009873 105.51566 215.679569 147.965471 246.045157zM850.996273-115.683351c32.387641 8.709359 76.876901-27.89942 104.912421-86.083587l56.269561 23.795962c-22.189372 59.687404-18.158568 116.368334 9.544377 134.415362l-56.805774 92.308359L808.810474 48.752746 850.996273-115.683351zM924.087964-49.018022c12.966313 5.486968 27.89942-0.558725 33.412994-13.437034 5.504364-12.944823-0.560772-27.874861-13.519921-33.364899-12.94073-5.454222-27.89635 0.583285-33.409924 13.477966C905.084145-69.421724 911.130861-54.500896 924.087964-49.018022zM664.330896 752.01993C648.042931 790.317165 603.723539 808.152369 565.339324 791.896126c-38.384216-16.223496-56.287981-60.430324-39.98262-98.685603l118.41904-278.253328 164.035984 0L664.330896 752.01993zM1023.977999 104.242548 1023.977999 359.476603 463.173456 359.476603l-10.596336-32.224935c10.197246-29.117155 10.620895-60.863183 0.753153-90.967828l-18.690688-56.825217-19.276019-36.908608c3.345188-12.701277 5.63944-25.505907 7.121188-38.307468L1023.977999 104.242548zM917.304468 320.513196l0-74.467015-42.667775 0L874.636692 320.513196 917.304468 320.513196zM533.32519 185.751956l-42.669822 0L490.655368 320.513196l42.669822 0L533.32519 185.751956zM661.323399 246.045157l-42.676985 0L618.646414 320.513196l42.676985 0L661.323399 246.045157zM789.288862 185.751956l-42.644239 0L746.644623 320.513196l42.644239 0L789.288862 185.751956zM318.243623 49.149788 318.243623 49.149788c-31.845289 43.626613-72.330352 57.82908-111.661126 61.367673-10.510378 0.827855-20.886703 0.719384-30.820959 0.008186-139.490961-14.836917-55.822376-294.095132-55.822376-294.095132S402.395208-69.380792 318.243623 49.149788zM292.089963 351.68208c-85.507466 7.794523-102.167914-207.275787-102.167914-207.275787 6.284123 0.023536 12.695137-0.144286 19.25146-0.64059 40.399105-2.746554 85.278245-18.444071 121.409141-57.063647 0 0 128.694057 212.429157 52.782134 243.833401L517.774005 738.972776c8.03807 24.438599-5.266957 50.735521-29.786397 58.732659-6.734378 2.204202-13.602809 2.803859-20.225647 2.001587-17.388019-2.136663-32.836873-13.992689-38.680974-31.718399L292.089963 351.68208z"  horiz-adv-x="1024" />

    
    <glyph glyph-name="02xingzhengbangong" unicode="&#58899;" d="M649.216 146.304c1.696-0.672 3.424-0.896 5.184-0.96 0.224 0 0.384-0.128 0.608-0.128 0.352 0 0.64 0.192 0.896 0.192 1.312 0.064 2.592 0.32 3.84 0.736 0.48 0.128 0.928 0.288 1.408 0.48 1.632 0.736 3.168 1.664 4.448 2.976l84.896 84.704 84.928-84.704c1.28-1.312 2.784-2.208 4.352-2.944 0.512-0.224 0.992-0.384 1.536-0.512 1.184-0.448 2.4-0.672 3.712-0.736 0.352 0 0.64-0.192 0.96-0.192 0.192 0 0.384 0.128 0.608 0.128 1.76 0.064 3.488 0.32 5.152 0.96 1.888 0.8 3.552 1.952 4.864 3.296 2.816 2.752 4.416 6.56 4.416 10.656L861.024 593.632 861.024 665.696 861.024 716.192c0 4-1.568 7.84-4.384 10.656-2.816 2.816-6.656 4.384-10.656 4.384l-191.008 0 0 0c-1.472 0-2.784-0.448-4.128-0.8-0.576-0.128-1.184-0.128-1.728-0.32-5.408-2.272-9.184-7.616-9.184-13.856L639.936 666.08l0-71.904 0-433.952C639.968 154.176 643.648 148.672 649.216 146.304zM136.64 418.496c0-7.808 6.368-14.176 14.208-14.176l239.968 0c7.872 0 14.208 6.4 14.208 14.176 0 7.904-6.336 14.24-14.208 14.24L150.848 432.736C143.008 432.736 136.64 426.368 136.64 418.496zM390.816 315.712 150.848 315.712c-7.872 0-14.208-6.336-14.208-14.208 0-7.872 6.368-14.24 14.208-14.24l239.968 0c7.872 0 14.208 6.4 14.208 14.24C405.024 309.376 398.688 315.712 390.816 315.712zM390.816 198.72 150.848 198.72c-7.872 0-14.208-6.368-14.208-14.24 0-7.808 6.368-14.144 14.208-14.144l239.968 0c7.872 0 14.208 6.336 14.208 14.144C405.024 192.352 398.688 198.72 390.816 198.72zM903.648 657.728l0-73.376c25.248-7.072 41.376-14.816 47.392-20.736l0-574.88c-126.4 17.28-278.08 17.28-404.48 0L546.56 563.584c6.304 6.208 23.52 14.432 50.752 21.696L597.312 658.464c-34.304-7.712-64.544-18.56-86.272-33.216-51.328 34.624-149.696 48.096-237.792 48.096C147.232 673.344 0 645.792 0 568.096l0-620.8c0-10.56 4.64-20.416 12.64-27.232 8.032-6.752 18.656-9.568 28.96-7.776 69.92 12.064 150.016 18.464 231.712 18.464 81.696 0 161.824-6.4 231.712-18.464 0.992-0.16 1.984-0.16 2.944-0.288 0.704-0.064 1.408-0.16 2.144-0.192 0.352 0 0.672-0.096 0.992-0.096 1.888 0 3.808 0.192 5.664 0.544 0.16 0.032 0.256 0 0.416 0.032 69.92 12.064 150.016 18.464 231.712 18.464 81.664 0 161.792-6.4 231.68-18.464 2.016-0.384 4.064-0.576 6.048-0.576 8.352 0 16.448 2.944 22.88 8.352 8 6.816 12.672 16.672 12.672 27.232l0 620.8C1022.112 613.792 971.232 642.144 903.648 657.728zM475.52-11.328c-63.2 8.64-132.256 13.152-202.24 13.152s-139.04-4.544-202.24-13.152L71.04 563.584c14.4 14.112 85.376 38.72 202.24 38.72s187.872-24.608 202.24-38.72L475.52-11.328z"  horiz-adv-x="1024" />

    
    <glyph glyph-name="29gongwendanganrukuguanli" unicode="&#58900;" d="M551.392 296.704c-2.272 6.048-4.16 10.88-5.696 14.464-1.504 3.584-3.328 7.008-5.472 10.144-2.144 3.136-5.024 5.728-8.544 7.68C528.16 331.04 523.776 332 518.464 332c-5.152 0-9.504-0.96-12.992-3.008-3.552-1.984-6.368-4.64-8.576-7.808-2.144-3.264-4.224-7.328-6.112-12.192-1.952-4.864-3.552-9.056-4.928-12.544l-47.744-121.344c-1.984-4.864-3.36-8.672-4.256-11.36-0.8-2.752-1.248-5.376-1.248-7.936 0-4.384 1.824-8.384 5.504-11.872 3.616-3.424 7.808-5.184 12.608-5.184 5.6 0 9.664 1.632 12.096 4.928 2.496 3.264 5.472 9.568 8.928 18.88l8.928 24 76 0 8.864-23.424c1.248-2.944 2.656-6.24 4.32-10.016 1.632-3.808 3.2-6.624 4.64-8.512 1.472-1.824 3.264-3.264 5.376-4.256 2.112-1.056 4.672-1.632 7.648-1.632 5.056 0 9.44 1.824 13.056 5.44 3.584 3.552 5.408 7.552 5.408 11.872 0 4.256-1.92 10.88-5.76 20.064L551.392 296.704zM490.592 215.008l27.648 77.152 28.16-77.152L490.592 215.008zM896.896-212 127.04-212c-25.632 0-46.432 20.864-46.432 46.496L80.608 611.936c0 25.6 20.8 46.464 46.432 46.464l91.424 0 0-39.52L127.04 618.88c-3.744 0-6.944-3.168-6.944-6.944l0-777.44c0-3.808 3.2-7.008 6.944-7.008l769.888 0c3.808 0 6.944 3.2 6.944 7.008L903.872 611.936c0 3.776-3.136 6.944-6.944 6.944l-91.36 0L805.568 658.4l91.36 0c25.632 0 46.496-20.832 46.496-46.464l0-777.44C943.392-191.136 922.528-212 896.896-212zM706.592 550.048 317.344 550.048c-13.376 0-25.504 5.664-33.184 15.52S273.92 588.576 277.152 601.568l14.24 57.248c5.952 23.552 29.568 42.016 53.76 42.016l55.616 0c6.24 0 13.824 5.92 15.328 11.968l14.304 57.312C436.352 793.6 459.904 812 484.224 812l55.552 0c24.256 0 47.872-18.432 53.76-41.984l14.304-57.216c1.504-6.08 9.12-12 15.36-12l55.552 0c24.256 0 47.872-18.464 53.76-42.016l14.304-57.216c3.264-13.024 0.672-26.144-7.008-36.032C732.16 555.712 720.032 550.048 706.592 550.048zM345.152 661.28c-6.24 0-13.888-5.952-15.36-12.032L315.52 592l391.072-2.432c1.376 0 2.048 0.288 2.176 0.416l-14.624 59.264c-1.504 6.08-9.12 12.032-15.36 12.032l-55.552 0c-24.32 0-47.872 18.464-53.76 42.016L555.168 760.48c-1.504 6.048-9.12 12.032-15.36 12.032l-55.552 0c-6.24 0-13.952-5.984-15.424-12.032l-14.304-57.248c-5.824-23.488-29.376-41.952-53.696-41.952L345.152 661.28z"  horiz-adv-x="1024" />

    
    </font>
</defs>
</svg>
