<?xml version="1.0" standalone="no"?><!DOCTYPE svg PUBLIC "-//W3C//DTD SVG 1.1//EN" "http://www.w3.org/Graphics/SVG/1.1/DTD/svg11.dtd"><svg t="1512461047993" class="icon" style="" viewBox="0 0 1024 1024" version="1.1" xmlns="http://www.w3.org/2000/svg" p-id="2517" xmlns:xlink="http://www.w3.org/1999/xlink" width="200" height="200"><defs><style type="text/css"></style></defs><path d="M469.3504 554.6496H256a42.6496 42.6496 0 1 1 0-85.2992h213.3504V256a42.6496 42.6496 0 1 1 85.2992 0v213.3504H768a42.6496 42.6496 0 1 1 0 85.2992h-213.3504V768a42.6496 42.6496 0 1 1-85.2992 0v-213.3504zM512 1024c282.7776 0 512-229.2224 512-512S794.7776 0 512 0 0 229.2224 0 512s229.2224 512 512 512z" p-id="2518" fill="#149138"></path></svg>